<?xml version="1.0" encoding="utf-8"?>
<!-- Generator: Adobe Illustrator 16.0.0, SVG Export Plug-In . SVG Version: 6.00 Build 0)  -->
<!DOCTYPE svg PUBLIC "-//W3C//DTD SVG 1.1//EN" "http://www.w3.org/Graphics/SVG/1.1/DTD/svg11.dtd">
<svg version="1.1" xmlns="http://www.w3.org/2000/svg" xmlns:xlink="http://www.w3.org/1999/xlink" x="0px" y="0px" width="100px"
	 height="100px" viewBox="0 0 100 100" enable-background="new 0 0 100 100" xml:space="preserve">
<g id="Layer_3">
	<path fill="none" stroke="#000000" stroke-width="2" stroke-linecap="round" stroke-linejoin="round" stroke-miterlimit="10" d="
		M60.167,96.667C61,96.5,62,96.334,63,96.5"/>
	<path fill="#EDAD39" stroke="#EDAD39" stroke-linecap="round" stroke-linejoin="round" stroke-miterlimit="10" d="M38.167,55.835
		c-1.5,1.166-2.833,2.333-4,4c-3,5-8.667,15.166-4,20.666c1.178,1.43,2.991,2.054,4.842,1.999L35,82.834
		c-0.446,0.744-0.727,1.588-0.856,2.458L33.5,85c-2-1.166-4.333-4.333-6.833-3.166c-2.833,1.333-6.333,9.333-5.5,11.833l-0.333-0.5
		c-1.167-2-3.833-4-6-4.333c-0.833,2.5,0.833,6.5,2.333,8.5v-0.167c6,1,12.667-0.333,18.667-0.333c7.167,0,14.333-0.167,21.5-0.167
		c1,0,1.833,0.333,2.833,0l2.833-0.5c2.458,2.384,3.917,1.971,4.689,0.428l0.811,0.239c1.667-1.167,5.167,1,5.167-2.334l0.618-2.096
		c0.878,1.685,1.842,3.149,2.882,3.93l-0.833,0.833c2.666,0,8.5,1.167,11.166-0.167c3.054-1.526,0.256-3.838-2.275-4.414
		l0.609-1.086c1-0.166,0.791-1.625,0.166-3.166h0.334c3.21-0.385,3.155-6.015,0.979-7.893l0.521-0.607
		c3.5-2.167-1.334-10.167-4.667-9.334c-3,0.834,0.333,11.167-3.667,12.167l-0.463,0.261C76.859,77.382,74.892,71.691,73.5,66
		c-0.833-3.666-1.333-7.666-4.833-9.666C65.5,54.5,64.167,56.167,61,56.167l-0.333-0.166c-0.667-0.5-0.5-2.5-0.333-3.833l2.166-1
		c3.834-1.5,8.167-4.5,10.5-8c2.334-3.667-0.5-8.667-1.666-12.5c-2.5-7.333-5.834-15-10-21.333c-1.5-2.333-4-8.5-7.5-6.333
		c-1.834,1.167-3.167,6.5-3.167,8.667l0.833,0.333c-5.5,1.333-12,1.333-16.833,5.167L35,16.001c-0.667-2-4.833-9.833-7.5-8.833
		c-3.5,1.167-2,15.333-1.5,18l-0.333-0.833c1.333,7.333,2,14.5,4,21.667c0.833,2.667,0.667,6.333,3.5,7.833
		c1.833,0.833,4.333,0.5,6.333,0.5L38.167,55.835z"/>
</g>
<g id="Layer_5">
	<g>
		<g>
			<path fill="#EEDDBF" d="M30.706,19.792c-0.383-2.511-1.009-4.985-0.831-7.542c-0.627,0.36-1.254,0.72-1.881,1.079
				c1.713,1.037,3.005,3.111,3.55,5.003c0.192-0.471,0.383-0.941,0.575-1.412c-1.143,0.767-1.734,1.935-2.753,2.82
				c0.711,0.294,1.422,0.589,2.134,0.884c-0.015-1.588-0.12-3.168-0.25-4.75c-0.131-1.593-2.621-1.612-2.5,0
				c0.032,0.426,0.938,3.742,0.677,3.836c0.528,0.402,1.055,0.803,1.583,1.205c0.029-0.258-0.014-0.493-0.054-0.749
				c-0.248-1.589-2.656-0.912-2.411,0.665c-0.012,0.028-0.023,0.056-0.035,0.084c-0.086,0.779,0.869,1.462,1.583,1.206
				c2.94-1.059,1.313-4.173,1.158-6.247c-0.833,0-1.667,0-2.5,0c0.13,1.582,0.235,3.162,0.25,4.75
				c0.011,1.144,1.329,1.583,2.134,0.884c0.835-0.725,1.327-1.812,2.247-2.43c0.465-0.312,0.737-0.848,0.575-1.412
				c-0.726-2.518-2.43-5.123-4.7-6.497c-0.858-0.52-1.817,0.166-1.881,1.079c-0.193,2.773,0.505,5.484,0.919,8.208
				C28.537,22.047,30.945,21.369,30.706,19.792L30.706,19.792z"/>
		</g>
	</g>
	<g>
		<g>
			<path fill="#EEDDBF" d="M55.58,12.083c0.276-1.21-0.157-3.298,0.804-4.199c-0.589,0-1.179,0-1.768,0
				c1.405,1.465,2.577,3.469,3.054,5.449c0.401-0.528,0.804-1.055,1.205-1.583c-0.598-0.015-1.161-0.152-1.727-0.338
				c-0.233-0.077-0.492-0.193-0.684-0.349c-0.248-0.201-0.151,0.179,0.044-0.054c-0.505,0.065-1.01,0.13-1.515,0.195
				c0.18,0.135,0.321,0.303,0.426,0.503c0.401-0.528,0.804-1.055,1.205-1.583c-0.887,0.101-1.573,0.437-2.381,0.796
				c-1.208,0.537-0.51,2.29,0.631,2.329c0.596,0.021,1.108,0.129,1.668,0.331c1.521,0.546,2.17-1.871,0.664-2.411
				c-0.764-0.274-1.521-0.392-2.332-0.419c0.21,0.776,0.421,1.553,0.631,2.329c0.346-0.153,0.736-0.411,1.119-0.454
				c0.726-0.082,1.529-0.75,1.205-1.583c-0.338-0.869-0.834-1.438-1.574-1.997c-0.415-0.313-1.188-0.195-1.515,0.195
				c-2.532,3.018,1.482,4.941,4.134,5.009c0.836,0.021,1.391-0.812,1.205-1.583c-0.574-2.39-2.002-4.786-3.696-6.551
				c-0.482-0.503-1.279-0.458-1.768,0c-1.544,1.447-1.025,3.454-1.446,5.301C52.812,12.987,55.222,13.654,55.58,12.083L55.58,12.083
				z"/>
		</g>
	</g>
	<g>
		<g>
			<path fill="#EEDDBF" d="M46.101,42.101c2.571-2.787,4.933-2.655,7.97-0.609c2.683,1.808,5.182-2.526,2.523-4.317
				c-4.833-3.257-10.012-2.964-14.029,1.391C40.384,40.931,43.911,44.476,46.101,42.101L46.101,42.101z"/>
		</g>
	</g>
	<g>
		<g>
			<path fill="#EEDDBF" d="M58.101,41.434c3.317-2.612,8.396-3.984,12.566-3.934c3.226,0.039,3.222-4.961,0-5
				c-5.605-0.067-11.699,1.933-16.102,5.399C52.033,39.893,55.598,43.405,58.101,41.434L58.101,41.434z"/>
		</g>
	</g>
	<g>
		<g>
			<path fill="#EEDDBF" d="M43.998,38.423c-4.64-1.352-11.135-0.096-14.266,3.81c-1.996,2.489,1.519,6.051,3.535,3.535
				c2.077-2.591,6.302-3.426,9.401-2.523C45.771,44.148,47.087,39.323,43.998,38.423L43.998,38.423z"/>
		</g>
	</g>
	<g>
		<g>
			<path fill="#EEDDBF" d="M28.589,45.998c0.79,2.976,2.148,5.984,5.245,7.143c3.791,1.418,7.122-1.478,10.404,0.351
				c0.642-1.522,1.284-3.046,1.926-4.569c-1.601-0.555-2.738-0.422-4.331-0.422c-3.225,0-3.225,5,0,5
				c0.511,0,0.98-0.079,1.428-0.342c0.389-0.228,3.103,0.011,4.738,0.008c-0.222-1.637-0.443-3.273-0.665-4.91
				c-0.722,0.278-1.444,0.556-2.167,0.833c-2.474,0.952-2.346,5.048,0.665,4.911c6.935-0.317,13.613-1.241,19.709-4.721
				c4.26-2.432,9.877-7.059,6.615-12.374c-0.846-1.378-2.759-1.653-3.926-0.506c-2.055,2.02-4.122,3.73-6.661,5.109
				c1.01,1.309,2.02,2.618,3.029,3.926c1.604-1.554,2.979-2.944,3.891-5.006c0.806-1.821-0.521-4.444-2.823-3.672
				c-3.121,1.046-6.087,2.472-9.222,3.481c-3.366,1.084-6.448-0.772-9.777,0.019c-1.347,0.32-2.577,0.745-3.868,1.242
				c-1.759,0.679-3.575,0.289-5.331,0.776c-1.938,0.538-3.774,1.609-4.351,3.703c-1.189,4.325,4.644,5.229,7.478,4.626
				c7.557-1.606,15.199-0.841,22.567-3.527c3.003-1.095,1.707-5.928-1.33-4.821c-4.613,1.682-9.006,2.072-13.884,2.028
				c-1.872-0.017-3.667,0.308-5.482,0.739c-1.349,0.413-2.727,0.683-4.135,0.811c0.375,0.424,0.75,0.847,1.125,1.271
				c0.689,0.021,1.372-0.026,2.05-0.139c1.792-0.3,3.39-0.958,5.097-1.557c2.337-0.821,4.93,0.239,7.333,0.297
				c4.513,0.108,8.908-2.737,13.06-4.128c-0.941-1.224-1.883-2.448-2.823-3.672c-0.729,1.649-1.825,2.749-3.109,3.994
				c-2.085,2.021,0.568,5.263,3.029,3.926c2.923-1.588,5.309-3.566,7.673-5.891c-1.309-0.168-2.617-0.337-3.926-0.506
				c1.627,2.652-5.684,6.059-7.417,6.925C56.041,48.546,50.637,48.78,45.833,49c0.222,1.637,0.443,3.273,0.665,4.911
				c0.722-0.278,1.444-0.556,2.167-0.834c2.525-0.972,2.319-4.916-0.665-4.911c-1.95,0.003-3.888,0.033-5.833,0.167
				c-0.451,0.001-0.872,0.115-1.262,0.341c-1.66,0.972,1.097-0.175,0.929-0.175c-3.225,0-3.225,5,0,5
				c1.576,0-0.02-0.804,3.002,0.244c2.71,0.939,4.371-3.208,1.926-4.57c-1.588-0.885-3.44-2.159-5.372-1.728
				c-1.088,0.243-2.087,0.508-3.097,0.986c-2.964,1.399-4.282-1.503-4.882-3.763C32.584,41.555,27.761,42.878,28.589,45.998
				L28.589,45.998z"/>
		</g>
	</g>
	<g>
		<g>
			<path fill="#EEDDBF" d="M50.434,65.433c2.432-2.887,4.004,0.114,5.308,2.518c1.563,2.88,1.615,5.607-0.185,8.388
				c-1.301,2.01-2.311,3.872-3.11,6.125c-1.938,5.46-7.326,4.436-10.289,0.273c-0.299,1.14-0.598,2.28-0.897,3.42
				c4.024-2.055,7.035-8.592,6.738-12.991c-0.612,0.804-1.224,1.607-1.835,2.411c2.227-0.413,3.558-1.773,4.549-3.752
				c0.539-1.077,0.844-2.264,1.322-3.366c0.054-0.126,1.102,3.883,1.109,4.467c0.021,1.432-0.542,2.93-0.949,4.28
				c-0.324,1.03-0.763,2.008-1.315,2.933c-0.079,0.147-3.072,4.531-1.778,1.856c0.712-1.472,2.294-2.831,3.222-4.234
				c1.406-2.127,1.788-5.175,2.419-7.597c0.813-3.124-4.01-4.448-4.822-1.33c-0.732,2.814-1.159,5.663-3.079,7.996
				c-1.017,1.235-1.917,2.353-2.62,3.805c-0.974,2.013-0.762,5.167,1.145,6.566c5.232,3.841,10.272-4.871,11.651-8.666
				c1.444-3.979,2.263-12.168-2.306-14.691c-1.71-0.943-4.275-1.327-5.746,0.366c-1.33,1.53-2.146,6.178-4.131,6.545
				c-1.029,0.191-1.905,1.381-1.835,2.411c0.182,2.705-1.733,7.383-4.262,8.675c-1.136,0.58-1.656,2.354-0.897,3.42
				c2.999,4.214,8.922,8.289,14.254,5.396c2.24-1.215,3.534-2.835,4.527-5.18c1.305-3.083,2.866-5.729,4.473-8.654
				c4.246-7.73-6.245-24.364-14.197-14.925C44.836,64.346,48.354,67.902,50.434,65.433L50.434,65.433z"/>
		</g>
	</g>
	<g>
		<g>
			<path fill="#EEDDBF" d="M48.841,79.403c-0.454,0.772-0.808,1.604-1.333,2.333c1.439,0.841,2.878,1.683,4.317,2.523
				c0.196-0.352,0.471-0.648,0.667-1c0.664-1.19,0.295-2.723-0.896-3.42c-1.158-0.679-2.757-0.292-3.421,0.896
				c-0.196,0.352-0.471,0.648-0.667,1c-0.665,1.19-0.295,2.723,0.897,3.42c1.261,0.739,2.625,0.206,3.42-0.896
				c0.526-0.729,0.88-1.561,1.333-2.333c0.691-1.176,0.276-2.733-0.896-3.42C51.084,77.816,49.531,78.23,48.841,79.403
				L48.841,79.403z"/>
		</g>
	</g>
	<g>
		<g>
			<path fill="#EEDDBF" d="M65.46,72.813c2.498,4.309,4.465,8.897,6.764,13.313c1.934,3.714,3.339,7.62,6.334,10.647
				c0.568,0.573,1.451-0.311,0.885-0.885c-2.884-2.913-4.372-6.767-6.14-10.394c-2.172-4.458-4.275-9.021-6.763-13.313
				C66.136,71.485,65.056,72.115,65.46,72.813L65.46,72.813z"/>
		</g>
	</g>
	<g>
		<g>
			<path fill="#EEDDBF" d="M78.334,97.101c1.56,0.301,3.229,0.425,4.684,1.104c0.726,0.339,1.36-0.739,0.631-1.08
				c-1.572-0.734-3.296-0.904-4.982-1.229C77.879,95.743,77.543,96.948,78.334,97.101L78.334,97.101z"/>
		</g>
	</g>
	<g>
		<g>
			<path fill="#EEDDBF" d="M83.23,86.497c0.565,1.517,0.602,2.942-0.271,4.353c-0.213,0.346-0.008,0.813,0.374,0.918
				c0.448,0.124,0.869,0.184,1.333,0.188c0.278,0.003,0.528-0.193,0.603-0.459c0.329-1.177,0.191-2.344-0.167-3.498
				c-0.238-0.768-1.445-0.439-1.205,0.332c0.293,0.944,0.438,1.865,0.167,2.834c0.201-0.153,0.401-0.306,0.603-0.459
				c-0.352-0.004-0.662-0.05-1.001-0.144c0.125,0.306,0.249,0.612,0.374,0.918c1.033-1.673,1.074-3.497,0.396-5.315
				C84.156,85.417,82.948,85.74,83.23,86.497L83.23,86.497z"/>
		</g>
	</g>
	<g>
		<g>
			<path fill="#EEDDBF" d="M85.148,87.038c2.246-1.195,2.323-4.345,1.225-6.355c-0.285,0.285-0.57,0.57-0.855,0.855
				c1.758,0.87,1.621,4.278,0.373,5.518c0.328,0.043,0.655,0.085,0.982,0.127c-0.124-0.215-0.214-0.443-0.271-0.684
				c-0.229-0.771-1.437-0.442-1.205,0.332c0.116,0.391,0.164,0.642,0.396,0.982c0.226,0.331,0.682,0.425,0.982,0.127
				c1.793-1.782,1.873-6.244-0.627-7.482c-0.555-0.274-1.167,0.285-0.855,0.855c0.779,1.425,0.851,3.78-0.775,4.645
				C83.806,86.337,84.438,87.416,85.148,87.038L85.148,87.038z"/>
		</g>
	</g>
	<g>
		<g>
			<path fill="#EEDDBF" d="M86.936,86.497c0.392-1.028,0.489-2.079,0.334-3.165c-0.113-0.796-1.317-0.456-1.205,0.332
				c0.122,0.857-0.028,1.698-0.334,2.501C85.443,86.92,86.651,87.243,86.936,86.497L86.936,86.497z"/>
		</g>
	</g>
	<g>
		<g>
			<path fill="#EEDDBF" d="M84.018,71.705c1.84,1.271,2.499,4.853,0.873,6.518c-0.318,0.327-0.19,0.934,0.276,1.045
				c3.493,0.833,3.297-3.46,1.775-5.379c-0.501-0.631-1.38,0.26-0.885,0.885c0.729,0.918,1.456,3.77-0.559,3.289
				c0.092,0.348,0.184,0.696,0.276,1.045c2.222-2.277,1.376-6.751-1.127-8.482C83.983,70.166,83.359,71.25,84.018,71.705
				L84.018,71.705z"/>
		</g>
	</g>
	<g>
		<g>
			<path fill="#EEDDBF" d="M87.208,77.831c-0.004,0.138-0.013,0.27-0.035,0.405c-0.018,0.088-0.038,0.175-0.063,0.261
				c-0.053,0.138,0.022,0.104,0.225-0.102c-0.756,0.265-0.431,1.473,0.332,1.205c0.688-0.241,0.774-1.143,0.792-1.77
				C88.481,77.024,87.231,77.026,87.208,77.831L87.208,77.831z"/>
		</g>
	</g>
</g>
<g id="Layer_2">
	<path fill="none" stroke="#000000" stroke-width="2" stroke-linecap="round" stroke-linejoin="round" stroke-miterlimit="10" d="
		M35,16.001c-0.667-2-4.833-9.833-7.5-8.833c-3.5,1.167-2,15.333-1.5,18"/>
	<path fill="none" stroke="#000000" stroke-width="2" stroke-linecap="round" stroke-linejoin="round" stroke-miterlimit="10" d="
		M34.667,17.168C39.5,13.334,46,13.334,51.5,12.001"/>
	<path fill="none" stroke="#000000" stroke-width="2" stroke-linecap="round" stroke-linejoin="round" stroke-miterlimit="10" d="
		M50.667,11.668c0-2.167,1.333-7.5,3.167-8.667c3.5-2.167,6,4,7.5,6.333c4.166,6.333,7.5,14,10,21.333
		c1.166,3.833,4,8.833,1.666,12.5c-2.333,3.5-6.666,6.5-10.5,8"/>
	<path fill="none" stroke="#000000" stroke-width="2" stroke-linecap="round" stroke-linejoin="round" stroke-miterlimit="10" d="
		M25.667,24.334c1.333,7.333,2,14.5,4,21.667c0.833,2.667,0.667,6.333,3.5,7.833c1.833,0.833,4.333,0.5,6.333,0.5"/>
	<path fill="none" stroke="#000000" stroke-width="2" stroke-linecap="round" stroke-linejoin="round" stroke-miterlimit="10" d="
		M38,61.168c0-2.167,1.333-8.833,5-7.667c3.167,1-2,6.167-0.333,8.5"/>
	<path fill="none" stroke="#000000" stroke-width="2" stroke-linecap="round" stroke-linejoin="round" stroke-miterlimit="10" d="
		M36.833,60.335c-3.5,0.5-5,7.333-1.667,7.333"/>
	<path fill="none" stroke="#000000" stroke-width="2" stroke-linecap="round" stroke-linejoin="round" stroke-miterlimit="10" d="
		M43,61.001c5.5,2,6.167,10.167-0.667,9.667"/>
	<path fill="none" stroke="#000000" stroke-width="2" stroke-linecap="round" stroke-linejoin="round" stroke-miterlimit="10" d="
		M35.333,68.335c0.333,2.166,0,4.5-1,6"/>
	<path fill="none" stroke="#000000" stroke-width="2" stroke-linecap="round" stroke-linejoin="round" stroke-miterlimit="10" d="
		M42.833,70.668c0,3.5-0.167,7.167-2.833,9.833c-2.667,2.5-7.5,2.834-9.833,0c-4.667-5.5,1-15.666,4-20.666
		c1.167-1.667,2.5-2.834,4-4"/>
	<path fill="none" stroke="#000000" stroke-width="2" stroke-linecap="round" stroke-linejoin="round" stroke-miterlimit="10" d="
		M45,54.168c0.667,0,1.5,0,2.167-0.167"/>
	<path fill="none" stroke="#000000" stroke-width="2" stroke-linecap="round" stroke-linejoin="round" stroke-miterlimit="10" d="
		M45.833,54.668c0,0.5,0,1.667,0,1.667"/>
	<path fill="none" stroke="#000000" stroke-width="2" stroke-linecap="round" stroke-linejoin="round" stroke-miterlimit="10" d="
		M62.167,51.335c-0.833,0.333-2.333,0.833-2.833,1"/>
	<path fill="none" stroke="#000000" stroke-width="2" stroke-linecap="round" stroke-linejoin="round" stroke-miterlimit="10" d="
		M60.334,52.168c-0.167,1.333-0.334,3.333,0.333,3.833"/>
	<path fill="none" stroke="#000000" stroke-width="2" stroke-linecap="round" stroke-linejoin="round" stroke-miterlimit="10" d="
		M61,56.167c3.167,0,4.5-1.667,7.667,0.167c3.5,2,4,6,4.833,9.666c1.834,7.5,4.667,15,7.667,22.167c0.667,1,1.5,3.333,1.833,3.833"
		/>
	<path fill="none" stroke="#000000" stroke-width="2" stroke-linecap="round" stroke-linejoin="round" stroke-miterlimit="10" d="
		M82.334,93.5c0.833-3,9.833,1.167,5.166,3.5c-2.666,1.334-8.5,0.167-11.166,0.167"/>
	<path fill="none" stroke="#000000" stroke-width="2" stroke-linecap="round" stroke-linejoin="round" stroke-miterlimit="10" d="
		M64.667,70.167c1.667,5,3.833,9.667,6.167,14.5c1.5,3.167,3.666,9.667,6.333,11.667"/>
	<path fill="none" stroke="#000000" stroke-width="2" stroke-linecap="round" stroke-linejoin="round" stroke-miterlimit="10" d="
		M33.5,85c-2-1.166-4.333-4.333-6.833-3.166c-2.833,1.333-6.333,9.333-5.5,11.833"/>
	<path fill="none" stroke="#000000" stroke-width="2" stroke-linecap="round" stroke-linejoin="round" stroke-miterlimit="10" d="
		M35,82.834c-1,1.666-1.167,3.833-0.667,5.666"/>
	<path fill="none" stroke="#000000" stroke-width="2" stroke-linecap="round" stroke-linejoin="round" stroke-miterlimit="10" d="
		M20.833,93.167c-1.167-2-3.833-4-6-4.333c-0.833,2.5,0.833,6.5,2.333,8.5"/>
	<path fill="none" stroke="#000000" stroke-width="2" stroke-linecap="round" stroke-linejoin="round" stroke-miterlimit="10" d="
		M17.167,97.167c6,1,12.667-0.333,18.667-0.333c7.167,0,14.333-0.167,21.5-0.167c1,0,1.833,0.333,2.833,0"/>
	<path fill="none" stroke="#000000" stroke-width="2" stroke-linecap="round" stroke-linejoin="round" stroke-miterlimit="10" d="
		M56.667,84.334c1-3,5.667-10.5,9.5-8"/>
	<path fill="none" stroke="#000000" stroke-width="2" stroke-linecap="round" stroke-linejoin="round" stroke-miterlimit="10" d="
		M62.334,90.167c0-1,0-4,1.166-5.333c2.667-2.667,3.834,1.666,4.5,4c1,4,0.5,12.666-5,7.333"/>
	<path fill="none" stroke="#000000" stroke-width="2" stroke-linecap="round" stroke-linejoin="round" stroke-miterlimit="10" d="
		M60.167,96.667C61,96.5,62,96.334,63,96.5"/>
	<path fill="none" stroke="#000000" stroke-width="2" stroke-linecap="round" stroke-linejoin="round" stroke-miterlimit="10" d="
		M68.5,96.834c1.667-1.167,5.167,1,5.167-2.334"/>
	<path fill="none" stroke="#000000" stroke-width="2" stroke-linecap="round" stroke-linejoin="round" stroke-miterlimit="10" d="
		M79.5,82.667c4-1,0.667-11.333,3.667-12.167c3.333-0.833,8.167,7.167,4.667,9.334"/>
	<path fill="none" stroke="#000000" stroke-width="2" stroke-linecap="round" stroke-linejoin="round" stroke-miterlimit="10" d="
		M84.834,80c4.333-1.5,5.666,7.834,1.5,8.334"/>
	<path fill="none" stroke="#000000" stroke-width="2" stroke-linecap="round" stroke-linejoin="round" stroke-miterlimit="10" d="
		M83.667,84.667c1.333,1,4.167,6.5,2.167,6.833"/>
	
		<ellipse class="me_eye" transform="matrix(0.9865 -0.1636 0.1636 0.9865 -3.9571 10.2373)" fill="#FFFFFF" stroke="#000000" stroke-miterlimit="10" cx="60.185" cy="29.147" rx="7.313" ry="3.847"/>
	
		<ellipse class="me_iris" transform="matrix(0.9842 -0.1768 0.1768 0.9842 -4.2101 11.1)" stroke="#000000" stroke-linecap="round" stroke-linejoin="round" stroke-miterlimit="10" cx="60.184" cy="29.175" rx="2.635" ry="1.711"/>
	
		<ellipse class="me_eye" transform="matrix(-0.9894 0.1449 -0.1449 -0.9894 78.0795 60.5643)" fill="#FFFFFF" stroke="#000000" stroke-miterlimit="10" cx="36.833" cy="33.126" rx="7.314" ry="3.847"/>
	
		<ellipse class="me_iris" transform="matrix(-0.9971 0.0759 -0.0759 -0.9971 76.0742 63.3607)" stroke="#000000" stroke-linecap="round" stroke-linejoin="round" stroke-miterlimit="10" cx="36.833" cy="33.126" rx="2.635" ry="1.711"/>
	<g>
		<g>
			<path d="M48.666,40.037c0.4-0.151,0.81-0.249,1.231-0.32c0.146-0.025,0.319-0.026,0.476-0.032
				c0.099-0.003,0.197-0.003,0.295,0.001c0.41,0.008-0.175-0.055,0.167,0.018c0.666,0.142,1.349-0.188,1.538-0.873
				c0.173-0.627-0.206-1.396-0.873-1.538c-1.136-0.242-2.418-0.075-3.498,0.333c-0.637,0.241-1.066,0.835-0.873,1.538
				C47.296,39.774,48.028,40.277,48.666,40.037L48.666,40.037z"/>
		</g>
	</g>
	<g>
		<g>
			<path d="M49.208,39.165c0.025,1.079,0.334,2.11,0.522,3.166c0.141,0.793,1.345,0.456,1.205-0.332
				c-0.168-0.945-0.456-1.869-0.478-2.834C50.44,38.36,49.19,38.358,49.208,39.165L49.208,39.165z"/>
		</g>
	</g>
	<g>
		<g>
			<path d="M47.833,43.267c1.21-0.297,2.564-0.615,3.685,0.104c0.681,0.437,1.307-0.646,0.631-1.079
				c-1.416-0.907-3.108-0.608-4.648-0.229C46.718,42.254,47.05,43.459,47.833,43.267L47.833,43.267z"/>
		</g>
	</g>
</g>
<g id="Layer_4">
	
		<ellipse class="me_eyebrow" transform="matrix(0.9809 -0.1944 0.1944 0.9809 -3.0166 10.8846)" fill="#EEDDBF" stroke="#EEDDBF" stroke-width="0.25" stroke-miterlimit="10" cx="53.959" cy="20.815" rx="4.262" ry="2.5"/>
	
		<ellipse class="me_eyebrow" transform="matrix(0.9809 -0.1944 0.1944 0.9809 -3.814 7.9382)" fill="#EEDDBF" stroke="#EEDDBF" stroke-width="0.25" stroke-miterlimit="10" cx="38.543" cy="23.404" rx="4.262" ry="2.5"/>
</g>
</svg>