<?xml version="1.0" encoding="utf-8"?>
<!-- Generator: Adobe Illustrator 16.0.0, SVG Export Plug-In . SVG Version: 6.00 Build 0)  -->
<!DOCTYPE svg PUBLIC "-//W3C//DTD SVG 1.1//EN" "http://www.w3.org/Graphics/SVG/1.1/DTD/svg11.dtd">
<svg version="1.1" xmlns="http://www.w3.org/2000/svg" xmlns:xlink="http://www.w3.org/1999/xlink" x="0px" y="0px" width="100px"
	 height="100px" viewBox="0 0 100 100" enable-background="new 0 0 100 100" xml:space="preserve">
<g id="Layer_3">
	
		<path fill="#EEAD3A" stroke="#121212" stroke-width="0.5" stroke-linecap="round" stroke-linejoin="round" stroke-miterlimit="10" d="
		M37.25,54.25c-5.5-2.25-14.5,0.5-14.25-8c0.25-4.25,1.25-8.75,2-13C25.5,30,26,21.75,27.5,20v-1c0-2.25-1-10.75,1.25-13.5
		C32.5,0.75,37,9.5,39,12.25l0.454,0.968c4.528-2.428,10.179-3.16,15.046-2.718l0.667,0.01C55.659,5.207,57.371-0.995,62,6.25
		c3.5,5.25,6.75,13,7.5,19.5L69,24c1.75,5.75,1.5,13,1.5,19c0,5-0.5,6.25-4.75,9c-2.5,1.5-5.5,2.75-7.75,4.25l-0.5,0.5
		c5.839,7.94,9.932,18.717,9.63,28.661l0.62,0.089c1.5-0.75,4.75-0.25,7-3c2.75-3.75,2.25-8,0.5-11.75C79,67.25,85.5,74.5,82.75,78
		l-0.858,1.102c2.768,2.682,1.69,8.855-1.642,7.398l-1.75-1.25c1.25,3-0.75,8.75-4.25,6.75l-0.937-0.795
		c-0.823,2.911-3.68,2.59-6.063,1.795l-0.75-0.5c-2.5,3-11.5,1.25-15,1.5L51,94.25C49.5,96,47.25,97,45,96.5v-0.25
		c-0.684-0.598-1.25-1.926-1.63-3.506L41.25,93c-7.5,0.25-15.25,0.75-23,0.75v-0.5c-1-1.5-5-8-2.5-9c1.75-0.75,4.5,2.75,5,4
		l1.5-0.25c1.25-3.75,2.5-10.25,7.25-9.75c1.75,0,3.75,2.25,4.5,2.75l0.626,0.555c0.151-2.111,0.558-4.408,1.023-6.543L34.25,75
		c-2.5,0.5-5.5-3.5-7-5.5l-0.164-0.932c-2.027-0.015-3.953,0.187-5.336,0.932L21.5,70c-2,9-17.25-2.5-5.25-5.5L16,63.75
		c-0.5-1-1.25-5.25,0.25-6c3-2,3.75,4,3.5,5.75V64c1.226-0.095,2.452-0.209,3.678-0.339L23.5,62.5C24,57.75,30.25,56,32,61
		l0.543,1.466c2.042-0.306,4.085-0.629,6.128-0.95L38.75,61c0-1.5,1.5-6.5-1-6.5L37.25,54.25z"/>
</g>
<g id="Layer_4">
	
		<ellipse class="blog_eyebrow" fill="#EEDDBF" stroke="#EEDDBF" stroke-width="0.25" stroke-miterlimit="10" cx="47.904" cy="25.545" rx="4.262" ry="2.5"/>
	
		<ellipse class="blog_eyebrow" fill="#EEDDBF" stroke="#EEDDBF" stroke-width="0.25" stroke-miterlimit="10" cx="31.54" cy="25.954" rx="4.262" ry="2.5"/>
	<g>
		<g>
			<path fill="#EDDCBE" d="M32.039,16.669c-0.402-1.065-0.407-2.274-0.424-3.398c-0.013-0.857-0.133-2.383,0.508-3.078
				c-0.528,0.572-0.798-0.226-0.233,0.551c0.307,0.423,0.551,0.894,0.791,1.356c0.486,0.939,0.876,1.924,1.28,2.9
				c0.192-0.471,0.383-0.941,0.575-1.412c-0.732,0.426-1.448,0.881-2.168,1.328c-0.44,0.272-1.083,0.786-1.534,0.879
				c-1.578,0.328-0.908,2.738,0.665,2.411c1.503-0.313,2.992-1.699,4.298-2.46c0.439-0.255,0.785-0.902,0.575-1.412
				c-0.734-1.773-2.303-7.178-5.086-6.43c-1.586,0.427-1.95,2.309-2.104,3.707c-0.198,1.782-0.195,4.02,0.446,5.721
				C30.191,18.827,32.609,18.181,32.039,16.669L32.039,16.669z"/>
		</g>
	</g>
	<g>
		<g>
			<path fill="#EDDCBE" d="M30.583,11.001c0.15,1.441,0.183,2.892,0.333,4.333c0.164,1.568,2.524,1.644,2.5,0
				c-0.018-1.185-0.189-2.368-0.544-3.5c-0.762,0.321-1.523,0.643-2.285,0.963c0.379,0.563,0.773,1.115,1.167,1.667
				c0.928,1.3,3.097,0.054,2.158-1.262c-0.394-0.552-0.788-1.104-1.167-1.667c-0.762-1.13-2.729-0.452-2.285,0.963
				c0.292,0.931,0.441,1.859,0.456,2.834c0.833,0,1.667,0,2.5,0c-0.15-1.441-0.183-2.892-0.333-4.333
				c-0.071-0.677-0.515-1.25-1.25-1.25C31.206,9.751,30.513,10.322,30.583,11.001L30.583,11.001z"/>
		</g>
	</g>
	<g>
		<g>
			<path fill="#EDDCBE" d="M59.583,14.501c0.015-2.283,0.146-4.598,0.622-6.834c-0.762,0.099-1.522,0.199-2.284,0.298
				c1.815,2.48,2.204,5.611,2.874,8.535c0.611-0.471,1.224-0.941,1.836-1.412c-0.922-0.488-1.717-1.023-2.414-1.805
				c-1.076-1.205-2.838,0.569-1.768,1.768c0.834,0.934,1.818,1.612,2.92,2.195c0.986,0.522,2.085-0.326,1.836-1.412
				c-0.717-3.131-1.181-6.475-3.126-9.131c-0.582-0.795-2.036-0.864-2.284,0.298c-0.523,2.454-0.696,4.994-0.712,7.499
				C57.072,16.114,59.572,16.113,59.583,14.501L59.583,14.501z"/>
		</g>
	</g>
	<g>
		<g>
			<path fill="#EDDCBE" d="M58.417,11.501c0,0.519,0.003,1.038,0.026,1.557c0.021,0.495,0.009,1.153,0.311,1.574
				c0.396,0.553,1.081,0.817,1.71,0.448c0.547-0.32,0.846-1.155,0.448-1.71c-0.097-0.135,0.115,0.354,0.061,0.125
				c-0.062-0.259,0.032,0.321-0.001,0c-0.022-0.225-0.03-0.451-0.038-0.677c-0.017-0.438-0.017-0.877-0.017-1.316
				C60.917,9.889,58.417,9.889,58.417,11.501L58.417,11.501z"/>
		</g>
	</g>
	<g>
		<g>
			<path fill="#EDDCBE" d="M57.783,15.552c0.922,1.066,2.139,1.804,3.419,2.362c0.624,0.273,1.336,0.19,1.71-0.448
				c0.313-0.535,0.177-1.438-0.448-1.71c-1.103-0.481-2.118-1.053-2.913-1.972C58.494,12.563,56.733,14.339,57.783,15.552
				L57.783,15.552z"/>
		</g>
	</g>
	<g>
		<g>
			<path fill="#EDDCBE" d="M32.744,44.333c0.28-0.926,2.184-1.347,3.011-1.528c1.403-0.307,2.98,1.827,3.586,2.792
				c1.71,2.723,6.038,0.215,4.317-2.523c-1.886-3.003-5.051-5.691-8.823-5.149c-2.885,0.415-6.028,2.155-6.913,5.079
				C26.987,46.098,31.813,47.41,32.744,44.333L32.744,44.333z"/>
		</g>
	</g>
	<g>
		<g>
			<path fill="#EDDCBE" d="M30.428,42.843c-1.372-0.903-2.921-1.762-4.595-1.841c-1.362-0.064-2.5,1.186-2.5,2.5
				c0,1.412,1.139,2.436,2.5,2.5c0.256,0.015,0.173,0.003-0.249-0.037c0.106,0.025,0.211,0.054,0.315,0.088
				c0.114,0.037,0.227,0.078,0.338,0.123c-0.599-0.229,0.018,0.024,0.119,0.074c0.536,0.265,1.048,0.582,1.547,0.91
				c1.14,0.75,2.759,0.231,3.42-0.897C32.042,45.041,31.564,43.59,30.428,42.843L30.428,42.843z"/>
		</g>
	</g>
	<g>
		<g>
			<path fill="#EDDCBE" d="M43.928,47.994c7.247-4.198,16.179-4.449,24.24-2.915c3.15,0.6,4.495-4.219,1.33-4.821
				c-9.398-1.789-19.64-1.478-28.093,3.419C38.617,45.292,41.133,49.613,43.928,47.994L43.928,47.994z"/>
		</g>
	</g>
	<g>
		<g>
			<path fill="#EDDCBE" d="M23.5,46.835c-0.053,0.788,0.072,1.392,0.256,2.165c0.7,2.943,4.625,1.968,4.911-0.665
				c0.064-0.555,0.12-1.11,0.167-1.667c-1.667,0-3.333,0-5,0c0.328,3.039,1.802,4.526,4.648,5.536
				c1.48,0.524,3.158,0.532,4.688,0.875c3.524,0.788,6.928,1.905,10.5,2.5c9.809,1.632,20.349,0.02,25.822-9.149
				c1.657-2.775-2.666-5.289-4.316-2.523c-4.232,7.088-11.866,7.616-19.28,6.931c-3.89-0.359-7.628-1.626-11.396-2.58
				c-0.913-0.231-5.532-0.362-5.665-1.589c-0.346-3.198-4.698-3.236-5,0c-0.047,0.557-0.103,1.112-0.167,1.667
				c1.637-0.222,3.274-0.443,4.911-0.665c-0.026-0.278-0.051-0.557-0.077-0.835C28.714,43.614,23.713,43.635,23.5,46.835
				L23.5,46.835z"/>
		</g>
	</g>
	<g>
		<g>
			<path fill="#EDDCBE" d="M64,45.335c0.004,0.597,0.045,1.194,0.013,1.791c-0.025,0.277-0.014,0.202,0.035-0.226
				c-0.035,0.206-0.229,0.589,0.087-0.096c-0.021,0.036-0.041,0.071-0.063,0.107c0.133-0.236,0.315-0.424,0.548-0.564
				c0.093-0.061,1.038-0.198,0.547-0.178c-1.361,0.055-2.5,1.096-2.5,2.5c0,1.321,1.138,2.555,2.5,2.5
				c1.789-0.072,3.027-1.016,3.635-2.675c0.357-0.976,0.206-2.14,0.198-3.158c-0.01-1.363-1.13-2.5-2.5-2.5
				C65.145,42.835,63.99,43.972,64,45.335L64,45.335z"/>
		</g>
	</g>
	<g>
		<g>
			<path fill="#EDDCBE" d="M62.002,43.757c-5.075,0.736-10.609,0.907-15.74,1.047c-2.063,0.056-4.155-0.832-6.189-1.098
				c-0.723-0.068-1.436-0.194-2.138-0.376c-1.485-0.344-1.509-1.123-0.968,0.52c-0.383,0.941-0.766,1.882-1.149,2.823
				c0.227-0.032,0.453-0.063,0.68-0.095c-0.642-1.523-1.284-3.046-1.926-4.569c-2.08,0.903-3.879,1.286-5.673,2.725
				c-1.263,1.012-0.792,3.202,0.506,3.926c3.858,2.155,9.242,2.229,13.531,2.985c6.285,1.109,11.988,0.618,18.229-0.566
				c3.165-0.602,1.821-5.42-1.33-4.822c-5.349,1.016-10.172,1.52-15.57,0.567c-3.675-0.648-9.033-0.637-12.336-2.481
				c0.169,1.309,0.337,2.618,0.506,3.926c1.168-0.937,3.25-1.33,4.661-1.942c2.809-1.219,0.63-4.976-1.926-4.569
				c-0.746,0.119-1.227,0.24-1.874,0.599c-0.941,0.521-1.491,1.785-1.149,2.823c1.159,3.516,7.451,3.451,10.283,4.1
				c3.479,0.798,6.807,0.327,10.308-0.04c3.532-0.37,7.057-0.148,10.595-0.661C66.513,48.118,65.155,43.3,62.002,43.757
				L62.002,43.757z"/>
		</g>
	</g>
	<g>
		<g>
			<path fill="#EDDCBE" d="M39.668,60.143c1.163,0.318,2.369,0.463,3.386,1.145c0.315-1.165,0.631-2.329,0.946-3.494
				c-1.233,0.015-2.45,0.198-3.665,0.401c-1.009,0.168-1.559,1.398-1.31,2.306c0.292,1.062,1.299,1.478,2.307,1.31
				c0.89-0.147,1.764-0.256,2.668-0.267c1.937-0.022,2.464-2.477,0.946-3.494c-1.298-0.87-2.805-1.118-4.281-1.521
				C38.329,55.888,37.338,59.506,39.668,60.143L39.668,60.143z"/>
		</g>
	</g>
	<g>
		<g>
			<path fill="#EDDCBE" d="M46.341,71.159c1.996,2.428,0.662,8.219-0.315,10.843c0.918-0.374,1.836-0.747,2.754-1.121
				c-1.894-1.095-3.541-1.533-5.567-0.55c-0.961,0.467-4.103,5.43-4.76,4.556c-1.199-1.593,0.022-5.275,0.461-6.931
				c0.543-2.046,1.328-4.099,2.539-5.844c1-1.442-0.638-3.089-2.118-2.754c-0.223,0.033-0.446,0.066-0.668,0.1
				c-2.444,0.098-2.385,3.545,0,3.75c1.96,0.168,3.912-0.285,5.857,0.053c0.166,0.029,0.258,2.867,0.002,3.176
				c-0.828,0.999-2.595,1.294-3.588,2.185c-1.216,1.089-2.061,2.367-2.891,3.766c1.143,0.149,2.285,0.299,3.427,0.448
				c-0.233-1.483,0.086-3.032,0.429-4.469c0.196-0.819,0.509-1.586,0.891-2.332c0.149-0.22,0.298-0.438,0.447-0.658
				c0.056-1.417-0.302-1.646-1.074-0.684c-2.229,0.865-1.26,4.493,0.997,3.615c1.658-0.645,3.671-2.07,3.523-4.142
				c-0.128-1.789-1.587-3.577-3.605-2.894c-4.725,1.603-5.912,8.19-5.225,12.559c0.265,1.68,2.669,1.728,3.427,0.448
				c0.739-1.247,1.421-2.365,2.642-3.21c0.928-0.643,2.027-0.974,2.91-1.701c1.465-1.208,1.521-2.926,1.537-4.702
				c0.056-6.383-4.832-4.789-9.708-5.208c0,1.25,0,2.5,0,3.75c0.584-0.023,1.094-0.104,1.666-0.234
				c-0.706-0.918-1.412-1.836-2.118-2.754c-2.808,4.048-4.514,10.207-3.577,15.079c0.393,2.047,2.31,3.943,4.485,3.583
				c1.386-0.229,2.398-0.968,3.399-1.92c1.432-1.359,1.769-4.345,4.366-2.843c1.119,0.646,2.335,0.004,2.754-1.121
				c1.553-4.17,2.378-10.809-0.649-14.491C47.456,66.638,44.818,69.307,46.341,71.159L46.341,71.159z"/>
		</g>
	</g>
	<g>
		<g>
			<path fill="#EDDCBE" d="M31.174,71.492c1.09,1.291,3.101,1.97,4.605,0.96c0.847-0.568,1.213-1.643,0.673-2.565
				c-0.492-0.84-1.716-1.243-2.565-0.673c-0.348,0.233,0.406-0.099,0.013,0.014c0.302-0.028,0.348-0.041,0.139-0.036
				c0.291,0.049,0.333,0.049,0.125,0c-0.192-0.066-0.167-0.056,0.075,0.033c-0.084-0.046-0.165-0.096-0.242-0.151
				c0.369,0.246-0.098-0.145-0.173-0.233c-0.66-0.781-1.975-0.677-2.651,0C30.406,69.608,30.516,70.712,31.174,71.492L31.174,71.492
				z"/>
		</g>
	</g>
	<g>
		<g>
			<path fill="#EDDCBE" d="M67.332,93.25c2.744,0.151,5.178-0.843,6.579-3.286c0.804-1.4-1.356-2.659-2.158-1.262
				c-0.979,1.706-2.543,2.151-4.421,2.048C65.721,90.661,65.729,93.162,67.332,93.25L67.332,93.25z"/>
		</g>
	</g>
	<g>
		<g>
			<path fill="#EDDCBE" d="M73.201,91.079c2.842,1.249,5.748-0.853,6.336-3.747c0.32-1.573-2.09-2.243-2.41-0.664
				c-0.217,1.066-1.319,2.844-2.664,2.253C73.002,88.278,71.729,90.432,73.201,91.079L73.201,91.079z"/>
		</g>
	</g>
	<g>
		<g>
			<path fill="#EDDCBE" d="M79.83,86.705c3.555-0.628,4.765-5.998,2.052-8.256c-1.229-1.023-3.008,0.735-1.768,1.768
				c1.334,1.11,0.827,3.765-0.948,4.078C77.58,84.575,78.254,86.983,79.83,86.705L79.83,86.705z"/>
		</g>
	</g>
	<g>
		<g>
			<path fill="#EDDCBE" d="M77.701,71.579c1.495,0.938,2.776,2.861,1.885,4.623c-0.326,0.644-0.102,1.711,0.747,1.836
				c0.281,0.042,0.552,0.126,0.833,0.167c0.577,0.086,1.086-0.053,1.411-0.574c0.51-0.817,0.777-1.664,0.671-2.631
				c-0.174-1.585-2.676-1.602-2.5,0c0.062,0.563-0.033,0.894-0.329,1.369c0.471-0.191,0.94-0.383,1.411-0.574
				c-0.281-0.042-0.552-0.126-0.833-0.167c0.249,0.611,0.498,1.224,0.747,1.836c1.534-3.03-0.06-6.336-2.781-8.043
				C77.593,68.562,76.34,70.725,77.701,71.579L77.701,71.579z"/>
		</g>
	</g>
	<g>
		<g>
			<g>
				<path class="bag_group" fill="#664127" d="M32.94,59.609c1.544-1.497,3.431-2.663,5.374-3.569c0.73-0.341,0.095-1.418-0.631-1.08
					c-2.037,0.951-4.007,2.195-5.626,3.765C31.477,59.287,32.361,60.17,32.94,59.609L32.94,59.609z"/>
			</g>
		</g>
		<g>
			<g>
				<path class="bag_group" fill="#664127" d="M71.979,33.54c3.11-2.178,6.688-3.613,9.461-6.264c0.583-0.558-0.302-1.44-0.885-0.884
					c-2.69,2.573-6.188,3.954-9.207,6.069C70.693,32.919,71.317,34.003,71.979,33.54L71.979,33.54z"/>
			</g>
		</g>
		<g>
			<g>
				<path class="bag_group" fill="#664127" d="M86.538,24.149c0.287-0.49,1.347-1.122,1.959-1.38c0.313-0.132,0.536-0.408,0.437-0.769
					c-0.081-0.296-0.454-0.569-0.769-0.437c-0.562,0.236-1.071,0.542-1.566,0.896c-0.403,0.29-0.883,0.619-1.141,1.058
					C85.05,24.215,86.131,24.844,86.538,24.149L86.538,24.149z"/>
			</g>
		</g>
	</g>
	<g>
		<g>
			<g>
				<path class="bag_group" fill="#54B9D1" d="M81.131,23.296c-0.321-0.207-0.733-0.385-0.958-0.708c-0.309-0.443-0.489-0.923-0.914-1.285
					c-0.649-0.553-1.904-0.45-2.089,0.551c-0.153,0.83-0.002,1.557,0.438,2.276c0.471-0.612,0.94-1.224,1.411-1.836
					c-0.197-0.036-0.117,0.017,0.241,0.159c0.174,0.16-0.067-0.126-0.089-0.163c-0.128-0.226-0.228-0.469-0.33-0.706
					c-0.23-0.531-0.445-1.029-0.833-1.468c-0.295,0.711-0.589,1.422-0.884,2.134c0.646,0.02,1.12,0.293,1.555,0.758
					c0.45,0.482,0.421,1.324,0.804,1.873c0.389,0.558,1.087,0.813,1.71,0.448c0.553-0.323,0.839-1.15,0.448-1.71
					c-0.19-0.273-0.259-0.662-0.375-1c-0.204-0.592-0.529-1.067-0.954-1.522c-0.821-0.88-2.007-1.309-3.188-1.346
					c-1.153-0.036-1.569,1.358-0.884,2.134c-0.194-0.22,0.037,0.083,0.061,0.125c0.071,0.128,0.13,0.263,0.19,0.396
					c0.132,0.292,0.252,0.588,0.387,0.878c0.277,0.601,0.764,1.323,1.477,1.421c1.007,0.138,2.047-0.797,1.411-1.836
					c-0.05-0.077-0.098-0.157-0.141-0.238c-0.05-0.223-0.065-0.26-0.046-0.111c-0.696,0.184-1.393,0.368-2.089,0.551
					c0.362,0.309,0.505,0.817,0.821,1.179c0.442,0.507,0.996,0.844,1.557,1.204C81.23,26.328,82.482,24.164,81.131,23.296
					L81.131,23.296z"/>
			</g>
		</g>
		<g>
			<g>
				<path class="bag_group" fill="#54B9D1" d="M84.483,18.119c-0.577,0.993-1.144,2.075-1.108,3.256c0.022,0.737,0.797,1.521,1.582,1.206
					c1.348-0.541,2.058-1.969,1.98-3.393c-0.037-0.68-0.541-1.25-1.25-1.25c-0.653,0-1.287,0.569-1.25,1.25
					c0.003,0.049-0.017,0.491,0.016,0.259c-0.024,0.172-0.074,0.34-0.127,0.505c0.045-0.141-0.124,0.227-0.158,0.28
					c0.07-0.09,0.057-0.083-0.039,0.023c0.044-0.049,0.099-0.078,0.164-0.086c0.527,0.402,1.055,0.804,1.582,1.206
					c-0.021-0.702,0.409-1.378,0.767-1.994C87.453,17.984,85.292,16.726,84.483,18.119L84.483,18.119z"/>
			</g>
		</g>
	</g>
</g>
<g id="Layer_2">
	<path fill="none" stroke="#000000" stroke-width="2" stroke-linecap="round" stroke-linejoin="round" stroke-miterlimit="10" d="
		M27.5,19c0-2.25-1-10.75,1.25-13.5C32.5,0.75,37,9.5,39,12.25"/>
	<path fill="none" stroke="#000000" stroke-width="2" stroke-linecap="round" stroke-linejoin="round" stroke-miterlimit="10" d="
		M37.75,14.25C42.5,11,49,10,54.5,10.5"/>
	<path fill="none" stroke="#000000" stroke-width="2" stroke-linecap="round" stroke-linejoin="round" stroke-miterlimit="10" d="
		M55,14c0-5,1.25-16.75,7-7.75c3.5,5.25,6.75,13,7.5,19.5"/>
	<path fill="none" stroke="#000000" stroke-width="2" stroke-linecap="round" stroke-linejoin="round" stroke-miterlimit="10" d="
		M27.5,20c-1.5,1.75-2,10-2.5,13.25c-0.75,4.25-1.75,8.75-2,13c-0.25,8.5,8.75,5.75,14.25,8"/>
	<path fill="none" stroke="#000000" stroke-width="2" stroke-linecap="round" stroke-linejoin="round" stroke-miterlimit="10" d="
		M69,24c1.75,5.75,1.5,13,1.5,19c0,5-0.5,6.25-4.75,9c-2.5,1.5-5.5,2.75-7.75,4.25"/>
	<path fill="none" stroke="#000000" stroke-width="2" stroke-linecap="round" stroke-linejoin="round" stroke-miterlimit="10" d="
		M37.75,54.5c2.5,0,1,5,1,6.5"/>
	<path fill="none" stroke="#000000" stroke-width="2" stroke-linecap="round" stroke-linejoin="round" stroke-miterlimit="10" d="
		M49,60c-9.75,1.25-19.5,3.25-29.25,4"/>
	<path fill="none" stroke="#000000" stroke-width="2" stroke-linecap="round" stroke-linejoin="round" stroke-miterlimit="10" d="
		M19.75,63.5c0.25-1.75-0.5-7.75-3.5-5.75c-1.5,0.75-0.75,5-0.25,6"/>
	<path fill="none" stroke="#000000" stroke-width="2" stroke-linecap="round" stroke-linejoin="round" stroke-miterlimit="10" d="
		M16.25,64.5c-12,3,3.25,14.5,5.25,5.5"/>
	<path fill="none" stroke="#000000" stroke-width="2" stroke-linecap="round" stroke-linejoin="round" stroke-miterlimit="10" d="
		M21.75,69.5c3.25-1.75,9.5-0.5,13-0.5C39,69.25,43,69,47,69.25"/>
	<path fill="none" stroke="#000000" stroke-width="2" stroke-linecap="round" stroke-linejoin="round" stroke-miterlimit="10" d="
		M57.5,56.75C63.75,65.25,68,77,67,87.5"/>
	<path fill="none" stroke="#000000" stroke-width="2" stroke-linecap="round" stroke-linejoin="round" stroke-miterlimit="10" d="
		M36.75,70.5c-1.25,4.75-3.25,13-1.5,16.75"/>
	<path fill="none" stroke="#000000" stroke-width="2" stroke-linecap="round" stroke-linejoin="round" stroke-miterlimit="10" d="
		M34,81"/>
	<path fill="none" stroke="#000000" stroke-width="2" stroke-linecap="round" stroke-linejoin="round" stroke-miterlimit="10" d="
		M34,81c-0.75-0.5-2.75-2.75-4.5-2.75c-4.75-0.5-6,6-7.25,9.75"/>
	<path fill="none" stroke="#000000" stroke-width="2" stroke-linecap="round" stroke-linejoin="round" stroke-miterlimit="10" d="
		M20.75,88.25c-0.5-1.25-3.25-4.75-5-4c-2.5,1,1.5,7.5,2.5,9"/>
	<path fill="none" stroke="#000000" stroke-width="2" stroke-linecap="round" stroke-linejoin="round" stroke-miterlimit="10" d="
		M18.25,93.75c7.75,0,15.5-0.5,23-0.75"/>
	<path fill="none" stroke="#000000" stroke-width="2" stroke-linecap="round" stroke-linejoin="round" stroke-miterlimit="10" d="
		M60,84c-2.5-10.25-11.25-3.75-11.75,3"/>
	<path fill="none" stroke="#000000" stroke-width="2" stroke-linecap="round" stroke-linejoin="round" stroke-miterlimit="10" d="
		M49,90.75c0-2.75-3-9.5-5.25-6.5C42,86.5,43,94.5,45,96.25"/>
	<path fill="none" stroke="#000000" stroke-width="2" stroke-linecap="round" stroke-linejoin="round" stroke-miterlimit="10" d="
		M45,96.5c2.25,0.5,4.5-0.5,6-2.25"/>
	<path fill="none" stroke="#000000" stroke-width="2" stroke-linecap="round" stroke-linejoin="round" stroke-miterlimit="10" d="
		M51.5,94c3.5-0.25,12.5,1.5,15-1.5"/>
	<path fill="none" stroke="#000000" stroke-width="2" stroke-linecap="round" stroke-linejoin="round" stroke-miterlimit="10" d="
		M67.75,85.5c1.5-0.75,4.75-0.25,7-3c2.75-3.75,2.25-8,0.5-11.75C79,67.25,85.5,74.5,82.75,78"/>
	<path fill="none" stroke="#000000" stroke-width="2" stroke-linecap="round" stroke-linejoin="round" stroke-miterlimit="10" d="
		M79.75,78c5.25,1,4.5,10.25,0.5,8.5"/>
	<path fill="none" stroke="#000000" stroke-width="2" stroke-linecap="round" stroke-linejoin="round" stroke-miterlimit="10" d="
		M78.5,85.25c1.25,3-0.75,8.75-4.25,6.75"/>
	<path fill="none" stroke="#000000" stroke-width="2" stroke-linecap="round" stroke-linejoin="round" stroke-miterlimit="10" d="
		M73.5,88.25c0.5,6-3.25,5.75-6.25,4.75"/>
	<path fill="none" stroke="#000000" stroke-width="2" stroke-linecap="round" stroke-linejoin="round" stroke-miterlimit="10" d="
		M23.5,62.5C24,57.75,30.25,56,32,61"/>
	<path fill="none" stroke="#000000" stroke-width="2" stroke-linecap="round" stroke-linejoin="round" stroke-miterlimit="10" d="
		M27.25,69.5c1.5,2,4.5,6,7,5.5"/>
	
		<line class="bag_group" fill="none" stroke="#000000" stroke-linecap="round" stroke-linejoin="round" stroke-miterlimit="10" x1="84.954" y1="23.259" x2="88" y2="21.25"/>
	<g>
		
			<line class="bag_group" fill="none" stroke="#000000" stroke-linecap="round" stroke-linejoin="round" stroke-miterlimit="10" x1="70.378" y1="32.872" x2="81.451" y2="25.569"/>
		
			<line class="bag_group" fill="none" stroke="#000000" stroke-linecap="round" stroke-linejoin="round" stroke-miterlimit="10" x1="30.75" y1="59.007" x2="37.699" y2="54.425"/>
		
			<line class="bag_group" fill="none" stroke="#000000" stroke-linecap="round" stroke-linejoin="round" stroke-miterlimit="10" x1="85.657" y1="24.86" x2="89.25" y2="22.49"/>
		
			<line class="bag_group" fill="none" stroke="#000000" stroke-linecap="round" stroke-linejoin="round" stroke-miterlimit="10" x1="70.462" y1="34.881" x2="82" y2="27.271"/>
		
			<line class="bag_group" fill="none" stroke="#000000" stroke-linecap="round" stroke-linejoin="round" stroke-miterlimit="10" x1="32" y1="60.247" x2="39.054" y2="55.595"/>
		<path class="bag_group" fill="none" stroke="#000000" stroke-linecap="round" stroke-linejoin="round" stroke-miterlimit="10" d="M88.25,21.25
			C88.75,21.5,89,22,89,22.5"/>
		
			<path class="bag_group" fill="none" stroke="#000000" stroke-width="1.5" stroke-linecap="round" stroke-linejoin="round" stroke-miterlimit="10" d="
			M83.75,22.5c-0.75-2.25,0.5-4.5,2.5-5.5c1,1.75,1.25,3.75-0.25,5"/>
		
			<path class="bag_group" fill="none" stroke="#000000" stroke-width="1.5" stroke-linecap="round" stroke-linejoin="round" stroke-miterlimit="10" d="
			M82,23.5c-0.5-2.75-3.25-4.25-6-3.75c0,3,1.75,6.75,5.25,5.25"/>
		<path class="bag_group" fill="none" stroke="#000000" stroke-linecap="round" stroke-linejoin="round" stroke-miterlimit="10" d="M81.5,24.25
			c-0.5-0.75-1-1.25-1.75-1.75"/>
		
			<path class="bag_group" id="bag" fill="#54B9D1" stroke="#000000" stroke-width="1.5" stroke-linecap="round" stroke-linejoin="round" stroke-miterlimit="10" d="
			M82.056,28.228c-1,8.5-7.5,17.75-4.25,26.5c1.75,5,10.75,7.25,14.5,2.5c4.25-5.75,1.5-29-6.25-31.5l-0.306-0.067
			C85.437,24.362,84.372,22.558,84,22c-0.5,0-0.75,0.25-1,0.5v-0.25C81.75,23,81,25.5,81.75,27L82.056,28.228z"/>
		<path class="bag_group" fill="none" stroke="#000000" stroke-linecap="round" stroke-linejoin="round" stroke-miterlimit="10" d="M84,31
			c0,1.25,0,4.75,0,5.25"/>
		<path class="bag_group" fill="none" stroke="#000000" stroke-linecap="round" stroke-linejoin="round" stroke-miterlimit="10" d="M86,30.25
			c0.5,1,1,1.75,1.25,2.75"/>
	</g>
	<path fill="none" stroke="#000000" stroke-width="2" stroke-linecap="round" stroke-linejoin="round" stroke-miterlimit="10" d="
		M34.5,40.75c1,0,2.25,0,3.25,0"/>
	<path fill="none" stroke="#000000" stroke-linecap="round" stroke-linejoin="round" stroke-miterlimit="10" d="M36,42
		c0,0.75,0,1.75,0,2.5"/>
	<g>
		<g>
			<path d="M31.935,44.54c2.924,2.223,5.988,1.765,9.131,0.25c0.726-0.35,0.092-1.428-0.631-1.079
				c-2.753,1.327-5.313,1.693-7.869-0.25C31.923,42.972,31.302,44.059,31.935,44.54L31.935,44.54z"/>
		</g>
	</g>
	
		<ellipse id="eye" transform="matrix(0.9865 -0.1636 0.1636 0.9865 -4.9668 8.9533)" fill="#FFFFFF" stroke="#000000" stroke-miterlimit="10" cx="51.883" cy="34.636" rx="7.313" ry="3.847"/>
	<path id="eye_2_" fill="#FFFFFF" stroke="#000000" stroke-miterlimit="10" d="M24.941,38.53c3.686,0.42,6.812-0.727,7.139-2.697
		c0.329-1.98-2.286-4.084-5.937-4.866"/>
	
		<ellipse id="iris_1_" stroke="#000000" stroke-linecap="round" stroke-linejoin="round" stroke-miterlimit="10" cx="54.518" cy="33.625" rx="2.635" ry="1.711"/>
	
		<ellipse id="iris" stroke="#000000" stroke-linecap="round" stroke-linejoin="round" stroke-miterlimit="10" cx="28.525" cy="34.397" rx="2.152" ry="1.397"/>
	<g>
		<g>
			<path class="bag_group" fill="#121212" d="M81.959,28.165c1.679,0.451,3.889-0.125,4.456-1.937c0.242-0.771-0.965-1.099-1.205-0.332
				c-0.354,1.129-1.936,1.327-2.919,1.063C81.512,26.75,81.181,27.957,81.959,28.165L81.959,28.165z"/>
		</g>
	</g>
</g>
</svg>