<?xml version="1.0" encoding="utf-8"?>
<!-- Generator: Adobe Illustrator 16.0.0, SVG Export Plug-In . SVG Version: 6.00 Build 0)  -->
<!DOCTYPE svg PUBLIC "-//W3C//DTD SVG 1.1//EN" "http://www.w3.org/Graphics/SVG/1.1/DTD/svg11.dtd">
<svg version="1.1" xmlns="http://www.w3.org/2000/svg" xmlns:xlink="http://www.w3.org/1999/xlink" x="0px" y="0px" width="100px"
	 height="100px" viewBox="0 0 100 100" enable-background="new 0 0 100 100" xml:space="preserve">
<g id="Layer_3">
	<path fill="#EFAD3B" stroke="#EFAD3B" stroke-linecap="round" stroke-linejoin="round" stroke-miterlimit="10" d="M40.689,12.479
		c-0.375-3.184-3.371-13.109-6.929-7.865c-2.809,3.933-3.745,10.861-3.933,15.543l-0.187-0.187
		c-0.749,5.431-2.06,10.861-2.435,16.292C27.019,38.697,26.27,46,27.393,47.311l0.669,1.517c3.345-0.046,8.25-0.441,10.771,0.504
		l-0.167-0.167c3.5,1.333,3.5,5.833,4.5,9c0.325,1.41,2.272,5.851,2.264,8.646l-0.264,0.354c1.5-0.333,3.833-0.333,4.667-0.333
		l0.603-0.584c0.173,0.032,0.361,0.061,0.564,0.086c0.875,0.125,1.677,0.094,2.398-0.075l-0.064,0.573
		c0.5,0.666,0.666,1.5,0.333,2.333c-2.833,0.667-6.5-0.5-9,0.167L44,69.166c-1.833,0-4.667,0.167-7,0.167
		c-3.167-0.158-6.333-0.016-9.501-0.001l0.001,0.834c0.5,1.167,1.5,5.167,2.667,5.667c1.333,0.666,4.167-1.167,5-1.834l0.95-0.314
		c-0.999,3.374-2.084,6.987-2.5,10.494L33.5,84.166c-1-1.5-6-3.167-7.667-2.667c-2.333,0.667-7.667,7.167-8.333,8.834v-0.5
		c-1.167-2-4.333-5.667-4.5-1.334c-0.167,2,1.167,5,2.333,6.5H15.5c10.167,0.5,21,0.834,31,0.667l2.022-0.643
		c0.816,1.82,2.393,2.799,4.978,0.81l0.167,0.333c4.483,0.141,11.677,1.93,15.737-0.872l0.846,0.831
		c1.896,0.862,4.09-0.297,4.981-2.042L76,94.875c0.875,1.375,5,1.375,6.25,0.125c0.656-0.703,0.891-1.6,0.815-2.485l0.685,0.11
		c0.5,1.5,2.625-2,2.75-2.875c0.524-2.098-0.113-3.462-1.398-4.478l0.023-0.022C89.875,85.75,89.5,72,80.375,75
		c1.375,2.75,1.25,6-0.5,8.625C78,86.375,75.25,86.5,72.625,87.25l-0.143,0.005c2.312-5.858,1.852-14.705,1.852-21.256l-0.188-1.057
		c1.104-4.609,1.438-9.476-0.479-11.94c-0.377-0.472-0.843-0.849-1.363-1.133l0.033-0.063c1.873-1.499,4.12-2.622,4.682-5.057
		c0.749-2.622-0.188-6.18-0.562-8.989c-0.562-6.18-1.873-12.172-2.81-18.352v0.937c-0.562-4.307-2.809-9.738-4.868-13.67
		c-4.308-7.491-8.614,3.184-8.24,7.865l-0.937-0.75c-5.17-2.262-12.989-2.294-18.405,0.266L40.689,12.479z"/>
	<ellipse fill="#EEDDBF" stroke="#EEDDBF" stroke-width="0.25" stroke-miterlimit="10" cx="54.373" cy="27" rx="4.262" ry="2.5"/>
	<ellipse fill="#EEDDBF" stroke="#EEDDBF" stroke-width="0.25" stroke-miterlimit="10" cx="35.304" cy="27" rx="4.262" ry="2.5"/>
</g>
<g id="Layer_5">
	<g>
		<g>
			<path fill="#ECDBBD" d="M29.637,47.534c-0.102,0.067-0.213,0.094-0.333,0.08c0.302-0.036,0.614-0.006,0.915,0.013
				c0.483,0.031,0.963,0.155,1.436,0.251c1.228,0.25,2.461,0.576,3.72,0.622c3.226,0.117,3.214-4.883,0-5
				c-0.637-0.023-2.372-0.454-3.464-0.648c-1.641-0.292-3.272-0.43-4.797,0.365C24.253,44.707,26.781,49.021,29.637,47.534
				L29.637,47.534z"/>
		</g>
	</g>
	<g>
		<g>
			<path fill="#ECDBBD" d="M29.21,49.036c1.581,0.565,3.284,0.382,4.915,0.214c1.355-0.139,2.5-1.032,2.5-2.5
				c0-1.257-1.142-2.64-2.5-2.5c-0.664,0.068-1.326,0.14-1.993,0.168c-0.351,0.015-0.7,0-1.05-0.024
				c0.418,0.03-0.431-0.14-0.542-0.18c-1.284-0.459-2.734,0.506-3.075,1.746C27.083,47.349,27.928,48.578,29.21,49.036L29.21,49.036
				z"/>
		</g>
	</g>
	<g>
		<g>
			<path fill="#ECDBBD" d="M38.143,47.143c1.164-1.392,2.602-1.686,4.357-1.643c1.426,0.035,2.436,1.934,3.232,2.893
				c2.062,2.483,5.579-1.075,3.535-3.535c-1.973-2.375-3.558-4.009-6.768-4.357c-2.866-0.311-6.053,0.907-7.893,3.107
				C32.555,46.063,36.072,49.62,38.143,47.143L38.143,47.143z"/>
		</g>
	</g>
	<g>
		<g>
			<path fill="#ECDBBD" d="M49.04,49.536c4.414-0.732,8.406-2.111,12.96-2.411c4.373-0.288,8.77,0.137,13.125,0.5
				c3.215,0.268,3.189-4.734,0-5c-4.987-0.416-9.904-0.712-14.906-0.383c-4.38,0.288-8.251,1.766-12.508,2.472
				C44.535,45.241,45.887,50.059,49.04,49.536L49.04,49.536z"/>
		</g>
	</g>
	<g>
		<g>
			<path fill="#ECDBBD" d="M37.71,49.286c1.669,0.325,3.376,0.342,5,0.875c-0.582-1.025-1.164-2.05-1.746-3.075
				c-0.635,3.598,1.35,7.695,3.002,10.801c1.514,2.848,5.83,0.321,4.317-2.523c-0.543-1.021-1.005-2.082-1.425-3.159
				c-0.386-0.991-1.206-3.035-1.073-3.79c0.246-1.394-0.358-2.62-1.746-3.075c-1.632-0.536-3.327-0.549-5-0.875
				C35.89,43.852,34.547,48.67,37.71,49.286L37.71,49.286z"/>
		</g>
	</g>
	<g>
		<g>
			<path fill="#ECDBBD" d="M44.964,47.835c-0.412,1.654-0.999,3.7-0.182,5.31c0.636,1.252,2.04,1.749,3.354,1.534
				c1.12-0.185,1.881-1.167,2.449-2.06c0.175-0.274,0.338-0.555,0.52-0.825c-0.149,0.271-0.388,0.449-0.714,0.532
				c0.066-0.021,0.132-0.041,0.199-0.061c-1.125,0.206-1.93-0.48-2.415-2.06c-0.033-0.711,0.03-0.29-0.097,0.047
				c0.236-0.625-0.207,0.374-0.282,0.519c-0.622,1.193-1.708,2.688-1.545,4.103c0.129,1.123,0.67,2.09,1.835,2.411
				c1.29,0.354,2.745-0.425,3.076-1.746c0.041-0.167,0.083-0.334,0.125-0.5c0.407-1.632-0.771-3.085-2.411-3.165
				c-0.317-0.032-0.632-0.007-0.944,0.075c-0.148,0.051-1.306,0.423-0.721,0.264c-3.109,0.843-1.788,5.667,1.329,4.822
				c0.07-0.02,0.139-0.038,0.209-0.057c0.756-0.297,0.798-0.332,0.126-0.104c-0.804-1.055-1.607-2.109-2.411-3.165
				c-0.042,0.167-0.083,0.334-0.125,0.5c1.637,0.222,3.274,0.443,4.911,0.665c-0.047-0.407-0.166,0.702-0.041,0.207
				c0.165-0.65-0.129,0.228,0.083-0.219c0.252-0.533,0.545-1.047,0.82-1.568c0.622-1.175,1.293-2.491,0.968-3.859
				c-0.437-1.839-2.379-2.428-4.019-1.931c-1.041,0.316-1.64,0.928-2.273,1.766c-0.195,0.258-0.352,0.55-0.52,0.825
				c-0.174,0.251-0.175,0.271-0.002,0.058c-0.33,0.326-0.149,0.228,0.542-0.296c0.443,0,0.886,0,1.329,0
				c1.582,0.297,1.187,2.605,1.259,1.209c0.042-0.796-0.083,0.401,0.064-0.433c0.087-0.494,0.205-0.983,0.326-1.47
				C50.565,46.035,45.743,44.708,44.964,47.835L44.964,47.835z"/>
		</g>
	</g>
	<g>
		<g>
			<path fill="#ECDBBD" d="M45.988,54.592c-0.243,0.173-1.129,0.863-0.384,0.292c-0.063,0.048-0.129,0.09-0.2,0.127
				c0.381-0.234,0.801-0.292,1.26-0.172c0,1.607,0,3.215,0,4.822c0.992-0.419,1.923-0.9,2.603-1.769
				C49.697,57.345,50,56.852,50,56.125c0-0.66-0.266-1.301-0.732-1.768c-0.876-0.877-2.693-1.074-3.535,0
				c-0.149,0.189-0.309,0.36-0.488,0.521c0.518-0.464,0.2-0.156,0.036-0.054c-0.135,0.084-0.617,0.298,0.056,0.014
				C44.29,55.28,43.5,56.026,43.5,57.25c0,1,0.753,2.263,1.835,2.411c0.939,0.128,1.62,0.1,2.483-0.284
				c0.112-0.05,0.208-0.106,0.31-0.176c0.241-0.167,1.143-0.832,0.383-0.293c1.108-0.788,1.632-2.165,0.897-3.42
				C48.766,54.392,47.101,53.8,45.988,54.592L45.988,54.592z"/>
		</g>
	</g>
	<g>
		<g>
			<path fill="#ECDBBD" d="M52.512,54.783c1.698-1.042,3.582-0.407,4.846,0.859c1.036,1.039,3.272,1,3.926-0.506
				c1.415-3.257,9.901-4.259,12.757-5.351c2.979-1.139,1.688-5.975-1.33-4.821c-4.446,1.7-13.532,2.556-15.743,7.649
				c1.309-0.169,2.617-0.337,3.926-0.506c-3-3.008-7.276-3.868-10.904-1.641C47.246,52.149,49.756,56.476,52.512,54.783
				L52.512,54.783z"/>
		</g>
	</g>
	<g>
		<g>
			<path fill="#ECDBBD" d="M72.5,44.375c-6.731,0.749-13.474,1.33-20.25,1.375c-3.223,0.021-3.225,5.021,0,5
				c6.776-0.045,13.519-0.626,20.25-1.375C75.668,49.023,75.702,44.019,72.5,44.375L72.5,44.375z"/>
		</g>
	</g>
	<g>
		<g>
			<path fill="#ECDBBD" d="M40.091,70.238c-4.51,5.947-7.032,19.933-0.228,25.045c2.58,1.939,5.067-2.405,2.523-4.316
				c-2.293-1.724-1.518-6.845-1.179-9.219c0.441-3.085,1.291-6.468,3.201-8.986C46.358,70.19,42.013,67.704,40.091,70.238
				L40.091,70.238z"/>
		</g>
	</g>
	<g>
		<g>
			<path fill="#ECDBBD" d="M41.71,95.911c1.202,0.3,2.186,0.449,3.415,0.589c1.004,0.114,2.25-0.84,2.411-1.835
				c0.221-1.37,0.362-2.525,0.443-3.911c0.035-0.6,0.178-6.99,1.628-5.236c0.922,1.116,2.57,0.809,3.535,0
				c1.488-1.246,2.464-2.974,4.04-4.118c1.103-0.8,2.524-1.796,2.854-3.234c0.764-3.346-0.391-5.483-2.519-8.058
				c-2.056-2.488-5.572,1.07-3.535,3.535c1.938,2.346,0.729,2.882-0.875,4.59c-1.187,1.262-2.168,2.634-3.5,3.75
				c1.178,0,2.356,0,3.535,0c-1.907-2.307-5.065-2.262-7.51-0.922c-3.536,1.937-2.42,9.178-2.918,12.274
				c0.804-0.611,1.607-1.224,2.411-1.835c-0.695-0.137-1.39-0.273-2.085-0.411C39.911,90.307,38.583,95.129,41.71,95.911
				L41.71,95.911z"/>
		</g>
	</g>
	<g>
		<g>
			<path fill="#ECDBBD" d="M53.567,67.873c-0.068-0.475-0.021,0.036-0.021,0.119c0.001,0.092-0.071,0.585,0.007,0.115
				c-0.024,0.145-0.069,0.284-0.115,0.424c0.14-0.421,0.018-0.088-0.058,0.022c-0.577,0.845-0.162,2.076,0.673,2.565
				c0.929,0.544,1.99,0.169,2.565-0.673c0.719-1.052,0.736-2.361,0.563-3.569c-0.145-1.014-1.416-1.555-2.306-1.31
				C53.799,65.863,53.423,66.862,53.567,67.873L53.567,67.873z"/>
		</g>
	</g>
	<g>
		<g>
			<path fill="#ECDBBD" d="M57.783,72.363c-1.295-2.741-4.009-3.002-6.742-2.97c-3.028,0.037-5.767-1.284-8.047,1.484
				c-1.217,1.478-1.727,3.769-2.465,5.501c-0.756,1.773-1.382,3.521-1.649,5.437c-0.425,3.053-0.892,6.322,0.461,9.196
				c0.784,1.664,3.514,1.602,4.317,0c2.141-4.268,1.607-12.464,6.756-14.351c-1.025-0.582-2.05-1.164-3.075-1.746
				c0.221,1.034-1.918,3.507-2.125,4.795c-0.287,1.785,1.086,3.671,3.075,3.076c1.292-0.387,2.215-0.954,3.255-1.799
				c1.139-0.925,1.785-2.558,3.245-3.076c-1.025-1.025-2.051-2.051-3.076-3.076c-0.126,0.335-0.252,0.67-0.379,1.004
				c-3.021,1.061-1.721,5.893,1.33,4.822c2.012-0.706,3.555-2.353,3.871-4.496c0.25-1.7-1.079-3.786-3.076-3.076
				c-1.252,0.446-2.173,1.008-3.176,1.878c-1.146,0.993-1.767,2.532-3.323,2.997c1.025,1.025,2.05,2.051,3.075,3.076
				c0.459-2.859,2.801-4.28,2.125-7.455c-0.268-1.254-1.849-2.195-3.076-1.746c-7.923,2.903-6.571,10.322-9.744,16.649
				c1.439,0,2.878,0,4.317,0c-1.339-2.844,0.539-8.063,1.64-10.648c0.379-0.89,0.756-1.778,1.122-2.675
				c0.661-1.616,1.098-1.208,2.458-0.988c0.879,0.143,4.163-0.188,4.588,0.71C54.843,77.801,59.153,75.261,57.783,72.363
				L57.783,72.363z"/>
		</g>
	</g>
	<g>
		<g>
			<path fill="#ECDBBD" d="M47.25,67.375c0.037,0,0.074,0,0.111,0c1.612,0,1.612-2.5,0-2.5c-0.162,0-0.324,0-0.486,0
				c0.417,0.417,0.833,0.833,1.25,1.25c-0.064-0.562-0.136-1.12-0.142-1.687c-0.002-0.242,0.02-0.428,0.063-0.609
				c0.044-0.182,0.172-0.169,0.037-0.124c1.521-0.509,0.869-2.923-0.665-2.41c-2.138,0.715-2.003,2.992-1.792,4.83
				c0.078,0.677,0.51,1.25,1.25,1.25c0.162,0,0.324,0,0.486,0c1.612,0,1.612-2.5,0-2.5c-0.037,0-0.074,0-0.111,0
				C45.638,64.875,45.638,67.375,47.25,67.375L47.25,67.375z"/>
		</g>
	</g>
	<g>
		<g>
			<path fill="#ECDBBD" d="M47.667,60.545c-1.135,0.425-2.053,1.252-2.622,2.324c-0.32,0.602-0.157,1.355,0.448,1.71
				c0.569,0.334,1.391,0.153,1.71-0.448c0.25-0.472,0.672-1.005,1.128-1.176c0.637-0.238,1.066-0.836,0.873-1.537
				C49.037,60.806,48.307,60.306,47.667,60.545L47.667,60.545z"/>
		</g>
	</g>
	<g>
		<g>
			<path fill="#ECDBBD" d="M70.543,96.08c1.829,0.286,3.415-0.134,4.841-1.321c0.524-0.437,0.449-1.318,0-1.768
				c-0.514-0.515-1.245-0.436-1.768,0c-0.673,0.561-1.54,0.814-2.409,0.679c-0.672-0.105-1.342,0.16-1.537,0.873
				C69.505,95.143,69.868,95.976,70.543,96.08L70.543,96.08z"/>
		</g>
	</g>
	<g>
		<g>
			<path fill="#ECDBBD" d="M75.418,94.955c2.973,1.165,6.889,1.052,8.162-2.373c0.563-1.514-1.854-2.161-2.41-0.664
				c-0.728,1.954-3.662,1.186-5.088,0.627C74.579,91.956,73.935,94.374,75.418,94.955L75.418,94.955z"/>
		</g>
	</g>
	<g>
		<g>
			<path fill="#ECDBBD" d="M82.369,91.954c1.771,1.213,3.506,0.19,3.815-1.811c0.257-1.658,0.106-3.613-0.605-5.149
				c-0.678-1.462-2.832-0.19-2.158,1.262c-0.14-0.301,0.047,0.17,0.065,0.232c0.072,0.247,0.121,0.501,0.168,0.754
				c0.104,0.554,0.132,1.121,0.134,1.684c0.001,0.452-0.044,0.87-0.191,1.298c0.032-0.096,0.017-0.081-0.047,0.045
				c0.105-0.174,0.216-0.215,0.448-0.239c0.099-0.011-0.2-0.119-0.367-0.233C82.297,88.882,81.048,91.05,82.369,91.954
				L82.369,91.954z"/>
		</g>
	</g>
	<g>
		<g>
			<path fill="#ECDBBD" d="M83.183,84.692c0.195,0.195,0.389,0.383,0.527,0.623c0.404,0.698,1.465,0.076,1.08-0.631
				c-0.157-0.287-0.369-0.521-0.598-0.752c-0.277-0.277-0.791-0.229-0.982,0.127c-0.246,0.46-0.127,0.716-0.085,1.19
				c0.071,0.796,1.321,0.803,1.25,0c-0.01-0.11-0.125-0.485-0.085-0.56c-0.327,0.042-0.654,0.084-0.982,0.127
				c0.159,0.159,0.295,0.301,0.402,0.498c0.36-0.21,0.72-0.421,1.08-0.631c-0.192-0.332-0.454-0.606-0.723-0.877
				C83.498,83.236,82.614,84.12,83.183,84.692L83.183,84.692z"/>
		</g>
	</g>
	<g>
		<g>
			<path fill="#ECDBBD" d="M83.625,84.875c6.308,0.323,5.575-10.496-0.25-10.75c-0.807-0.035-0.803,1.215,0,1.25
				c4.213,0.184,4.935,8.49,0.25,8.25C82.819,83.584,82.823,84.834,83.625,84.875L83.625,84.875z"/>
		</g>
	</g>
	<g>
		<g>
			<path fill="#ECDBBD" d="M86.415,84.065c2.091-3.617-0.18-7.175-2.973-9.633c-0.603-0.529-1.49,0.351-0.885,0.885
				c2.325,2.045,4.582,4.997,2.777,8.117C84.931,84.134,86.012,84.763,86.415,84.065L86.415,84.065z"/>
		</g>
	</g>
	<g>
		<g>
			<path fill="#ECDBBD" d="M85.058,76.817c0.563,0.601,0.746,1.454,0.965,2.224c0.22,0.774,1.426,0.445,1.205-0.332
				c-0.282-0.993-0.563-2.004-1.285-2.776C85.39,75.344,84.508,76.229,85.058,76.817L85.058,76.817z"/>
		</g>
	</g>
	<g>
		<g>
			<path fill="#ECDBBD" d="M34.75,16.667c0.201-3.017,0.768-5.985,1.789-8.834c-0.291,0.291-0.582,0.582-0.873,0.873
				c0.431-0.108,0.698-0.365,0.913-0.741c-0.719,0-1.439,0-2.158,0c0.908,2.133,1.241,4.446,1.707,6.702
				c0.192-0.471,0.383-0.941,0.575-1.412c-1.25,0.675-2.119,1.677-3.086,2.695c0.696,0.405,1.393,0.811,2.089,1.216
				c0.266-1.54,0.927-2.927,1.044-4.499c0.121-1.619-2.347-1.582-2.5,0c-0.164,1.695-0.69,2.986-1.8,4.283
				c-1.036,1.209,0.617,2.926,1.768,1.768c0.608-0.612,1.173-1.232,1.695-1.919c0.976-1.284-1.197-2.527-2.158-1.262
				c-0.389,0.511-0.854,0.959-1.305,1.414c0.589,0.589,1.178,1.178,1.768,1.768c1.572-1.835,2.3-3.651,2.533-6.05
				c-0.833,0-1.667,0-2.5,0c-0.099,1.326-0.73,2.53-0.956,3.834c-0.199,1.153,1.157,2.197,2.089,1.216
				c0.812-0.854,1.529-1.736,2.581-2.305c0.514-0.277,0.686-0.873,0.575-1.412c-0.517-2.495-0.957-4.943-1.96-7.298
				c-0.378-0.889-1.735-0.74-2.158,0c0.693-0.426,0.787-0.52,0.282-0.282c-0.297,0.174-0.461,0.431-0.575,0.747
				c-0.367,1.025-0.671,2.06-0.936,3.116c-0.523,2.084-0.799,4.242-0.942,6.384C32.143,18.277,34.643,18.267,34.75,16.667
				L34.75,16.667z"/>
		</g>
	</g>
	<g>
		<g>
			<path fill="#ECDBBD" d="M65.084,15c0.148-1.797,0.222-3.815,1.634-5.116c-0.696-0.184-1.393-0.368-2.089-0.551
				c0.885,2.717,2.088,5.317,2.5,8.167c0.513-0.513,1.024-1.025,1.537-1.538c-2.035-0.842-2.805-1.561-2.461-3.795
				c-0.804,0-1.606,0-2.41,0c0.423,1.108,0.596,2.145,0.622,3.334c0.527-0.402,1.055-0.804,1.582-1.206
				c-0.428-0.069-0.912-0.078-1.333-0.167c-1.604-0.336-2.145,1.827-0.664,2.411c1.385,0.547,2.536,1.549,3.867,2.207
				c0.953,0.472,2.146-0.297,1.836-1.412c-0.866-3.122-2.259-6.059-3.166-9.167c-0.298-1.021-1.743-1.258-2.284-0.298
				c-1.061,1.881-0.869,3.88-0.838,5.964c0.024,1.611,2.524,1.613,2.5,0c-0.023-1.575-0.31-3.272,0.496-4.703
				c-0.762-0.1-1.522-0.199-2.284-0.298c0.906,3.108,2.3,6.045,3.166,9.167c0.611-0.471,1.224-0.941,1.836-1.412
				c-1.537-0.761-2.86-1.826-4.465-2.46c-0.222,0.804-0.442,1.607-0.664,2.411c0.45,0.094,0.881,0.093,1.333,0.167
				c0.774,0.125,1.602-0.325,1.582-1.206c-0.031-1.391-0.213-2.693-0.712-3.999c-0.388-1.015-2.202-1.355-2.41,0
				c-0.224,1.449-0.336,2.766,0.283,4.128c0.671,1.476,2.549,2.174,3.924,2.743c0.992,0.41,1.654-0.728,1.537-1.538
				c-0.412-2.849-1.615-5.449-2.5-8.167c-0.296-0.911-1.381-1.204-2.089-0.551c-1.933,1.78-2.162,4.41-2.366,6.884
				C62.451,16.608,64.952,16.595,65.084,15L65.084,15z"/>
		</g>
	</g>
	<g>
		<g>
			<path fill="#707071" d="M47,69.125c1.587,0.067,3.221-0.465,4.793-0.17c1.575,0.296,2.248-2.113,0.664-2.41
				c-1.84-0.346-3.613,0.158-5.457,0.08C45.387,66.557,45.394,69.057,47,69.125L47,69.125z"/>
		</g>
	</g>
</g>
<g id="Layer_2">
	<path fill="none" stroke="#000000" stroke-width="2" stroke-linecap="round" stroke-linejoin="round" stroke-miterlimit="10" d="
		M40.689,12.479c-0.375-3.184-3.371-13.109-6.929-7.865c-2.809,3.933-3.745,10.861-3.933,15.543"/>
	<path fill="none" stroke="#000000" stroke-width="2" stroke-linecap="round" stroke-linejoin="round" stroke-miterlimit="10" d="
		M60.539,14.54c-0.374-4.682,3.933-15.356,8.24-7.865c2.06,3.933,4.307,9.363,4.868,13.67"/>
	<path fill="none" stroke="#000000" stroke-width="2" stroke-linecap="round" stroke-linejoin="round" stroke-miterlimit="10" d="
		M38.816,15.476c5.244-3.933,14.794-4.307,20.786-1.686"/>
	<path fill="none" stroke="#000000" stroke-width="2" stroke-linecap="round" stroke-linejoin="round" stroke-miterlimit="10" d="
		M73.647,19.408c0.937,6.18,2.248,12.172,2.81,18.352c0.374,2.809,1.311,6.367,0.562,8.989c-0.562,2.435-2.809,3.558-4.682,5.057"/>
	<path fill="none" stroke="#000000" stroke-width="2" stroke-linecap="round" stroke-linejoin="round" stroke-miterlimit="10" d="
		M29.641,19.97c-0.749,5.431-2.06,10.861-2.435,16.292C27.019,38.697,26.27,46,27.393,47.311"/>
	<path fill="none" stroke="#000000" stroke-width="2" stroke-linecap="round" stroke-linejoin="round" stroke-miterlimit="10" d="
		M40.314,43.191c0.937,0,2.06,0,2.622,0"/>
	<g>
		<g>
			<path d="M41.876,44.127c0-0.002,0-0.005,0-0.008c-0.027-0.712-1.01-0.842-1.228-0.166c-0.136,0.423-0.079,0.985-0.106,1.422
				c-0.021,0.331-0.042,0.662-0.063,0.993c-0.008,0.122-0.016,0.244-0.024,0.366c-0.008,0.116-0.08,0.313,0.005,0.043
				c0.409,0.056,0.819,0.111,1.228,0.167c0-0.003,0-0.005,0-0.008c-0.031-0.803-1.282-0.806-1.25,0c0,0.002,0,0.005,0,0.008
				c0.028,0.71,1.012,0.844,1.228,0.166c0.135-0.424,0.079-0.984,0.106-1.422c0.021-0.331,0.042-0.662,0.063-0.993
				c0.008-0.122,0.016-0.244,0.024-0.366c0.008-0.118,0.081-0.312-0.005-0.043c-0.409-0.056-0.819-0.111-1.228-0.167
				c0,0.002,0,0.005,0,0.008C40.657,44.931,41.907,44.934,41.876,44.127L41.876,44.127z"/>
		</g>
	</g>
	<g>
		<g>
			<path d="M37.438,46.004c2.329,1.979,4.88,1.82,7.499,0.472c0.717-0.369,0.084-1.447-0.631-1.079
				c-2.074,1.067-4.108,1.317-5.984-0.277C37.712,44.602,36.823,45.481,37.438,46.004L37.438,46.004z"/>
		</g>
	</g>
	<path fill="none" stroke="#000000" stroke-width="2" stroke-linecap="round" stroke-linejoin="round" stroke-miterlimit="10" d="
		M65.834,67.002c-1-5.167-10.334-17.667-15.667-10c-1,1.5-1.333,3.667-1.5,5.5c-0.333,2.667-0.333,3.5,2.333,3.833
		c3.5,0.5,5.834-1.5,6.5-4.833"/>
	<path fill="none" stroke="#000000" stroke-width="2" stroke-linecap="round" stroke-linejoin="round" stroke-miterlimit="10" d="
		M56,65.169c1,6.333,9,18.166,14.667,9.166c2.5-4.333,6.5-16.833,3-21.333c-2-2.5-6.5-2.333-8.5,0.167"/>
	<path fill="none" stroke="#000000" stroke-width="2" stroke-linecap="round" stroke-linejoin="round" stroke-miterlimit="10" d="
		M74.334,65.999c0,6.834,0.5,16.167-2.167,22"/>
	<path fill="none" stroke="#000000" stroke-width="2" stroke-linecap="round" stroke-linejoin="round" stroke-miterlimit="10" d="
		M37.167,69.999c-1.667,6.334-4.833,14.167-3.333,20.667"/>
	<path fill="none" stroke="#000000" stroke-width="2" stroke-linecap="round" stroke-linejoin="round" stroke-miterlimit="10" d="
		M33.5,84.166c-1-1.5-6-3.167-7.667-2.667c-2.333,0.667-7.667,7.167-8.333,8.834"/>
	<path fill="none" stroke="#000000" stroke-width="2" stroke-linecap="round" stroke-linejoin="round" stroke-miterlimit="10" d="
		M17.5,89.833c-1.167-2-4.333-5.667-4.5-1.334c-0.167,2,1.167,5,2.333,6.5"/>
	<path fill="none" stroke="#000000" stroke-width="2" stroke-linecap="round" stroke-linejoin="round" stroke-miterlimit="10" d="
		M15.5,94.999c10.167,0.5,21,0.834,31,0.667"/>
	<path fill="none" stroke="#000000" stroke-width="2" stroke-linecap="round" stroke-linejoin="round" stroke-miterlimit="10" d="
		M53.667,91.333c-0.167-1.5-1.333-4.834-3-5.5c-3.167-1-2.833,3-2.833,5c-0.167,3.333,1.333,8.333,5.667,5"/>
	<path fill="none" stroke="#000000" stroke-width="2" stroke-linecap="round" stroke-linejoin="round" stroke-miterlimit="10" d="
		M65.334,85.499c-0.167-1.666-2.334-5.666-4.167-6c-2.833-0.5-7.333,5.334-8.167,7.667"/>
	<g>
		<g>
			<path d="M47,96.916c0.5-0.001,1.033-0.018,1.5-0.212c0.628-0.262,1.071-0.817,0.873-1.537c-0.164-0.595-0.908-1.136-1.538-0.873
				c-0.287,0.119-0.488,0.121-0.834,0.122C45.388,94.42,45.388,96.92,47,96.916L47,96.916z"/>
		</g>
	</g>
	<path fill="none" stroke="#000000" stroke-width="2" stroke-linecap="round" stroke-linejoin="round" stroke-miterlimit="10" d="
		M53.667,96.166c5.333,0.167,14.5,2.667,17.667-3"/>
	<path fill="none" stroke="#000000" stroke-width="2" stroke-linecap="round" stroke-linejoin="round" stroke-miterlimit="10" d="
		M27.5,70.166c0.5,1.167,1.5,5.167,2.667,5.667c1.333,0.666,4.167-1.167,5-1.834"/>
	
		<path fill="#707071" stroke="#000000" stroke-width="1.5" stroke-linecap="round" stroke-linejoin="round" stroke-miterlimit="10" d="
		M43.167,69.166c4.833,0.5,0.5-8.833,0-11c-1-3.167-1-7.667-4.5-9l0.167,0.167c-2.667-1-8-0.5-11.333-0.5
		c-2.167,0-7-0.333-8.167,0.333l0.5-0.167c-6.333-0.5-1.333,13-0.5,16.5c1.167,4.334,3.5,3.834,7.667,3.834
		c3.333,0,6.667-0.167,10,0c2.333,0,5.167-0.167,7-0.167"/>
	<g>
		<g>
			<path d="M44.618,69.595c3.042-0.557,6.146,0.355,9.211-0.145c0.212-0.034,0.378-0.244,0.437-0.437
				c0.294-0.973,0.176-1.662-0.403-2.496c-0.457-0.657-1.541-0.033-1.08,0.631c1.101,1.583-1.55,1.256-2.025,1.247
				c-0.812-0.016-1.624-0.087-2.433-0.141c-1.359-0.089-2.695-0.111-4.039,0.135C43.493,68.534,43.83,69.739,44.618,69.595
				L44.618,69.595z"/>
		</g>
	</g>
	<g>
		<g>
			<path d="M45.59,67.769c1.387-0.301,2.829-0.31,4.243-0.311c0.806,0,0.806-1.25,0-1.25c-1.527,0.001-3.077,0.03-4.575,0.355
				C44.471,66.734,44.805,67.939,45.59,67.769L45.59,67.769z"/>
		</g>
	</g>
	<g>
		<g>
			<path d="M43.185,59.039c0.84,0.412,1.704,0.726,2.649,0.752c0.807,0.022,0.804-1.228,0-1.25c-0.717-0.02-1.381-0.269-2.018-0.582
				C43.095,57.605,42.461,58.684,43.185,59.039L43.185,59.039z"/>
		</g>
	</g>
	<g>
		<g>
			<path d="M60.649,56.873c0.701-0.538,1.335-1.142,1.96-1.765c0.57-0.57-0.313-1.455-0.885-0.885
				c-0.545,0.546-1.093,1.1-1.706,1.569c-0.27,0.207-0.413,0.534-0.225,0.855C59.95,56.915,60.378,57.081,60.649,56.873
				L60.649,56.873z"/>
		</g>
	</g>
	<g>
		<g>
			<path d="M50.397,61.667c-0.353,1.346-0.355,2.783-0.355,4.166c0,0.806,1.25,0.806,1.25,0c0-1.271-0.014-2.597,0.311-3.834
				C51.808,61.219,50.602,60.888,50.397,61.667L50.397,61.667z"/>
		</g>
	</g>
	<g>
		<g>
			<path d="M53.064,61.5c-0.366,1.48-0.666,2.97-0.689,4.499c-0.013,0.807,1.237,0.806,1.25,0c0.022-1.421,0.305-2.793,0.645-4.167
				C54.463,61.05,53.258,60.718,53.064,61.5L53.064,61.5z"/>
		</g>
	</g>
	
		<ellipse id="eye" transform="matrix(0.9865 -0.1636 0.1636 0.9865 -5.3594 9.8866)" fill="#FFFFFF" stroke="#000000" stroke-miterlimit="10" cx="57.354" cy="37.486" rx="7.313" ry="3.846"/>
	<path id="eye_1_" fill="#FFFFFF" stroke="#000000" stroke-miterlimit="10" d="M27.845,40.838c0.586,0.185,1.21,0.335,1.862,0.443
		c3.984,0.661,7.496-0.502,7.844-2.598s-2.602-4.33-6.586-4.99c-0.874-0.145-1.726-0.202-2.525-0.181"/>
	<g>
		<g>
			<path d="M26.5,44.781c0.055,1.776,0.901,3.141,2.089,4.395c0.555,0.586,1.438-0.299,0.884-0.884
				c-0.954-1.007-1.679-2.075-1.723-3.511C27.725,43.977,26.475,43.975,26.5,44.781L26.5,44.781z"/>
		</g>
	</g>
	<path fill="none" stroke="#000000" stroke-width="2" stroke-linecap="round" stroke-linejoin="round" stroke-miterlimit="10" d="
		M72.625,87.25c2.625-0.75,5.375-0.875,7.25-3.625C81.625,81,81.75,77.75,80.375,75c9.125-3,9.5,10.75,4.75,10.25"/>
	<path fill="none" stroke="#000000" stroke-width="2" stroke-linecap="round" stroke-linejoin="round" stroke-miterlimit="10" d="
		M83.125,84.125c2.5,1.125,4.125,2.625,3.375,5.625c-0.125,0.875-2.25,4.375-2.75,2.875"/>
	<path fill="none" stroke="#000000" stroke-width="2" stroke-linecap="round" stroke-linejoin="round" stroke-miterlimit="10" d="
		M80.625,89.125c2.125,0.75,3.375,4,1.625,5.875C81,96.25,76.875,96.25,76,94.875"/>
	<path fill="none" stroke="#000000" stroke-width="2" stroke-linecap="round" stroke-linejoin="round" stroke-miterlimit="10" d="
		M75.5,91.5c0.875,2.875-2.5,5.875-5.25,4.625"/>
	
		<ellipse class="iris" stroke="#000000" stroke-linecap="round" stroke-linejoin="round" stroke-miterlimit="10" cx="56" cy="38.499" rx="2.635" ry="1.71"/>
	
		<ellipse class="iris" stroke="#000000" stroke-linecap="round" stroke-linejoin="round" stroke-miterlimit="10" cx="32.275" cy="38.499" rx="2.635" ry="1.71"/>
</g>
<g id="Layer_7">
	<g class="bone">
		<g>
			<g>
				<path d="M25.083,58.334c0,0.036,0,0.072,0,0.108c0,1.612,2.5,1.612,2.5,0c0-0.036,0-0.072,0-0.108
					C27.583,56.722,25.083,56.722,25.083,58.334L25.083,58.334z"/>
			</g>
		</g>
		<g>
			<g>
				<path d="M26.659,62.083c1.612,0,1.612-2.5,0-2.5S25.046,62.083,26.659,62.083L26.659,62.083z"/>
			</g>
		</g>
		<g>
			<g>
				<path d="M27.311,60.888c1.507,0.023,2.965,0.278,4.461-0.045c1.575-0.34,0.907-2.749-0.665-2.41
					c-1.238,0.267-2.544-0.025-3.796-0.045C25.698,58.363,25.7,60.863,27.311,60.888L27.311,60.888z"/>
			</g>
		</g>
		<g>
			<g>
				<path d="M32.417,59.692c1.612,0,1.612-2.5,0-2.5S30.804,59.692,32.417,59.692L32.417,59.692z"/>
			</g>
		</g>
		<g>
			<g>
				<path d="M32.417,61.974c1.612,0,1.612-2.5,0-2.5S30.804,61.974,32.417,61.974L32.417,61.974z"/>
			</g>
		</g>
	</g>
</g>
</svg>