<?xml version="1.0" encoding="utf-8"?>
<!-- Generator: Adobe Illustrator 16.0.0, SVG Export Plug-In . SVG Version: 6.00 Build 0)  -->
<!DOCTYPE svg PUBLIC "-//W3C//DTD SVG 1.1//EN" "http://www.w3.org/Graphics/SVG/1.1/DTD/svg11.dtd">
<svg version="1.1" xmlns="http://www.w3.org/2000/svg" xmlns:xlink="http://www.w3.org/1999/xlink" x="0px" y="0px" width="100px"
	 height="100px" viewBox="0 0 100 100" enable-background="new 0 0 100 100" xml:space="preserve">
<g id="Layer_3">
	<path fill="#ECAD38" stroke="#ECAD38" stroke-linecap="round" stroke-linejoin="round" stroke-miterlimit="10" d="M29.857,70.763
		c2.657-2.277,4.175,2.656,3.985,4.744c-0.379,4.364-4.174,3.226-5.882,0c-0.949-2.088-1.897-7.4-0.189-9.298
		c2.277-2.657,2.087,2.656,2.467,3.795L29.857,70.763z"/>
	<path fill="#ECAD38" stroke="#ECAD38" stroke-linecap="round" stroke-linejoin="round" stroke-miterlimit="10" d="M38.63,18.916
		c-0.759-2.467-2.277-14.231,1.518-15.75c3.605-1.708,7.4,6.072,9.108,8.539l0.917,1.383c4.619-1.471,9.312-1.843,13.884-0.624
		l0.813,0.129c0.832-3.084,2.292-8.563,4.646-9.573c3.416-1.328,4.744,3.416,5.313,5.882c1.708,7.211,2.467,14.801,2.656,22.012
		c0.19,8.918,1.708,15.56-6.831,20.494l-1.073,0.544c0.315,1.402,0.573,2.896,0.125,4.39l0.379-0.38
		c3.617,2.109,3.724,7.943,2.601,13.587l0.626,1.403c1.058,5.47,1.296,12.744-0.048,18.314l0.237-0.478
		c3.415-0.379,7.211-3.605,8.349-6.831c0.76-1.708,0-5.503,1.139-6.831c3.985-4.554,10.058,8.159,4.364,9.678l0.156-0.049
		c1.307,2.559,0.065,6.586-2.813,7.449l-1.393,0.165c-0.384,2.751-2.279,5.271-4.68,3.25l-1.135-0.589
		c-1.323,2.592-4.563,3.934-5.507,0.969l-1.328,0.569c-2.467,1.708-10.246,0.569-13.662,0.569c-3.605,0-7.4,0-11.005,0l-0.19-0.19
		c-0.273-0.437-0.483-1.156-0.622-1.996l-0.137,0.479c-9.108,0-18.596,1.518-27.515,0.189l-1.138,0.19
		c-1.139-2.657-1.329-7.211-0.569-9.867c2.277,0.379,3.985,3.604,4.174,5.692l0.569,0.569c1.518-5.124,6.642-16.509,12.903-9.298
		l1.139,1.138c5.503,0.76,11.765-0.568,17.268-0.568l1.328-0.38c0.38-1.139,0.189-2.467-0.38-3.605l-0.475-0.641
		c-2.465,1.113-5.341,0.314-6.546-2.396c-1.139-2.467-0.19-9.487,3.795-6.262l0,0c-0.189-1.139-0.379-2.087-0.569-3.226v1.139
		c-0.379-1.897-2.277-5.124-3.226-7.4l-0.379-0.19c-1.774,0.071-4.08,0.248-6.499,0.333l0.426-1.092
		c0.19-0.569,0.569-0.948,0.759-1.518l0.759-1.139c-0.19-1.519-0.19-3.416,1.328-4.175c-0.986-0.657-0.833-2.01-0.272-3.219
		l-0.676-0.576c-4.174-2.846-6.831-3.605-6.452-9.298c0.38-6.831,2.467-13.093,3.985-19.924L38.63,18.916z"/>
</g>
<g id="Layer_5">
	
		<ellipse class="resume_eyebrow" fill="#EEDDBF" stroke="#EEDDBF" stroke-width="0.5" stroke-miterlimit="10" cx="60.748" cy="23.242" rx="4.262" ry="2.5"/>
	
		<ellipse class="resume_eyebrow" fill="#EEDDBF" stroke="#EEDDBF" stroke-width="0.25" stroke-miterlimit="10" cx="45.228" cy="23.242" rx="4.262" ry="2.5"/>
	<g>
		<g>
			<path fill="#EEDDBF" d="M43.59,16.833c-0.053-2.769-0.776-5.606-0.044-8.334c-0.762,0.099-1.523,0.199-2.285,0.298
				c0.72,0.997,1.437,1.986,2.053,3.052c1.178,2.04-0.191,3.133-1.691,4.433c0.696,0.405,1.393,0.811,2.089,1.216
				c0.517-1.638,0.834-3.296,1.044-4.999c0.197-1.598-2.305-1.579-2.5,0c-0.182,1.477-0.508,2.916-0.956,4.334
				c-0.401,1.273,1.2,1.988,2.089,1.216c1.449-1.256,3.355-2.88,2.989-5.049c-0.35-2.069-1.763-3.809-2.96-5.465
				c-0.605-0.837-1.983-0.826-2.285,0.298c-0.799,2.985-0.103,5.976-0.044,9C41.121,18.443,43.621,18.447,43.59,16.833L43.59,16.833
				z"/>
		</g>
	</g>
	<g>
		<g>
			<path fill="#EEDDBF" d="M69.045,14.333c0.596-2.133,0.563-4.772,2.179-6.449c-0.696-0.184-1.393-0.368-2.089-0.551
				c0.945,3.281,1.405,6.584,1.288,10.001c0.711-0.294,1.423-0.589,2.134-0.884c-0.825-0.647-1.759-1.289-2.385-2.146
				c-0.625-0.856,0.031-2.035,0.414-2.839c-0.72,0-1.438,0-2.158,0c0.475,1.052,0.141,2.31,0.54,3.368
				c0.563,1.493,2.98,0.847,2.41-0.665c-0.476-1.261-0.213-2.682-0.792-3.965c-0.375-0.831-1.775-0.805-2.158,0
				c-0.681,1.428-1.249,2.835-0.854,4.425c0.388,1.559,2.041,2.67,3.215,3.59c0.839,0.657,2.094,0.292,2.134-0.884
				c0.124-3.628-0.373-7.181-1.378-10.666c-0.256-0.888-1.427-1.238-2.089-0.551c-2.015,2.089-2.081,4.898-2.821,7.551
				C66.2,15.224,68.612,15.883,69.045,14.333L69.045,14.333z"/>
		</g>
	</g>
	<g>
		<g>
			<path fill="#EEDDBF" d="M70.138,14.587c-0.328-0.172-0.385-0.213-0.578-0.403c-0.079-0.079-0.271-0.337-0.348-0.517
				c-0.264-0.627-0.815-1.071-1.537-0.873c-0.593,0.163-1.139,0.909-0.873,1.538c0.437,1.038,1.055,1.881,2.074,2.413
				c0.604,0.315,1.354,0.16,1.71-0.448C70.918,15.731,70.741,14.902,70.138,14.587L70.138,14.587z"/>
		</g>
	</g>
	<g>
		<g>
			<path fill="#EEDDBF" d="M47.499,41.428c1.727-2.617,6.161-1.674,7.516,0.833c1.532,2.837,5.85,0.313,4.316-2.523
				c-3.23-5.98-12.428-6.474-16.15-0.833C41.399,41.605,45.731,44.106,47.499,41.428L47.499,41.428z"/>
		</g>
	</g>
	<g>
		<g>
			<path fill="#EEDDBF" d="M45.602,38.008c-2.949-1.275-5.994-2.725-9.26-1.752c-3.083,0.918-1.769,5.744,1.329,4.821
				c1.828-0.544,3.759,0.535,5.407,1.248c1.251,0.541,2.67,0.383,3.42-0.897C47.124,40.361,46.854,38.549,45.602,38.008
				L45.602,38.008z"/>
		</g>
	</g>
	<g>
		<g>
			<path fill="#EEDDBF" d="M59.102,42.825c4.42-2.79,10.745-3.035,15.74-1.915c3.141,0.705,4.476-4.116,1.33-4.821
				c-6.271-1.407-14.036-1.09-19.594,2.418C53.86,40.224,56.366,44.552,59.102,42.825L59.102,42.825z"/>
		</g>
	</g>
	<g>
		<g>
			<path fill="#EEDDBF" d="M35.015,42.262c1.695,3.249,5.25,5.265,8.397,6.897c0.642-1.523,1.284-3.046,1.926-4.569
				c-1.999-0.75-3.476-2.353-5.403-3.248c-0.642,1.523-1.284,3.046-1.926,4.569c1.839,0.644,4.05,1.202,5.996,0.667
				c0.693-0.19,1.499-0.614,2.009-1.125c1.22-1.22-0.174-1.3,1.257-1.001c2.859,0.597,7.146,1.548,7.813-2.453
				c0.284-1.709-1.103-3.774-3.076-3.075c-4.355,1.543-11.972,10.821-3.499,12.654c5.41,1.171,9.094-5.486,4.716-9.252
				c-4.991-4.294-11.439,5.725-7.486,10.089c2.649,2.925,8.126,0.867,10.869-0.646c3.643-2.01,4.659-5.992,3.644-9.767
				c-0.362-1.345-1.758-2.065-3.076-1.746c-7.058,1.71-5.607,13.662,2.101,11.896c3.511-0.804,5.782-3.117,6.954-6.445
				c1.091-3.1-0.856-5.839-4.057-5.707c-5.1,0.21-9.357,12.49-3.397,14.13c2.435,0.669,4.412-1.448,5.812-3.112
				c1.245-1.48,3.758-7.345,5.646-7.732c-0.811-0.214-1.621-0.429-2.432-0.643c-1.001-0.863-4.234,2.951-4.789,3.628
				c-1.189,1.453-1.271,2.959-0.917,4.728c0.268,1.335,1.834,2.091,3.076,1.746c2.223-0.617,3.781-1.792,5.223-3.577
				c1.519-1.881,2.619-5.156,5.11-5.923c-1.056-0.804-2.11-1.607-3.165-2.411c0.17,2.628-4.156,4.604-5.601,6.399
				c-1.698,2.11,0.422,5.452,3.029,3.926c2.432-1.422,4.372-3.009,5.896-5.396c1.741-2.726-2.588-5.231-4.316-2.523
				c-1.069,1.674-2.429,2.623-4.104,3.603c1.01,1.309,2.02,2.618,3.029,3.926c2.665-3.311,7.384-4.997,7.065-9.934
				c-0.102-1.566-1.527-2.915-3.165-2.411c-5.01,1.543-5.73,8.222-10.333,9.5c1.025,0.582,2.051,1.164,3.076,1.746
				c-0.21-1.044,3.306-3.344,3.993-4.106c1.062-1.177,1.527-2.842,1.503-4.39c-0.049-3.185-4.166-3.378-5.913-1.448
				c-2.125,2.346-3.501,5.264-5.45,7.758c-0.487,0.624-1.033,1.183-1.607,1.726c0.535,0.209,1.069,0.419,1.604,0.629
				c-0.057-0.846,0.072-1.662,0.385-2.448c0.175-0.612,0.974-4.828-0.481-1.936c-1.344,2.668-4.851,0.206-2.446-0.376
				c-1.025-0.582-2.051-1.164-3.076-1.746c0.712,2.646-0.576,3.94-2.906,4.903c-0.98,0.56-1.933,0.458-2.857-0.306
				c1.236-0.759,1.328-1.382,0.275-1.867c0.339,0.474-0.253,1.006,0.016,0.462c0.595-1.207,2.147-2.341,3.382-2.779
				c-1.025-1.025-2.051-2.05-3.076-3.075c0.202-1.213-3.733-1.619-5.087-1.246c-0.828,0.228-1.768,1.009-2.213,1.724
				c-0.813,1.309-2.334,0.394-3.625-0.058c-2.663-0.933-4.497,3.376-1.926,4.569c2.352,1.092,4.141,2.831,6.597,3.752
				c2.669,1.001,4.417-3.277,1.926-4.569c-2.385-1.237-5.313-2.631-6.603-5.103C37.84,36.878,33.525,39.407,35.015,42.262
				L35.015,42.262z"/>
		</g>
	</g>
	<g>
		<g>
			<path fill="#EEDDBF" d="M65.508,38.089c-0.656,0.219-1.303,0.456-1.93,0.752c-1.232,0.582-1.539,2.324-0.896,3.42
				c0.732,1.251,2.188,1.479,3.42,0.897c0.485-0.229-0.568,0.217,0.007,0.002c0.24-0.09,0.485-0.168,0.729-0.25
				c1.291-0.431,2.122-1.708,1.746-3.075C68.237,38.575,66.801,37.658,65.508,38.089L65.508,38.089z"/>
		</g>
	</g>
	<g>
		<g>
			<path fill="#EEDDBF" d="M38.181,41.928c0.598,1.409,1.995,2.524,3.494,2.816c1.336,0.261,2.693-0.358,3.075-1.746
				c0.34-1.237-0.408-2.814-1.746-3.075c-0.2-0.039-0.807-0.278-0.09,0.038c-0.194-0.085-0.653-0.474-0.056,0.021
				c-0.16-0.132-0.503-0.622-0.047,0.011c-0.13-0.181-0.226-0.384-0.313-0.588c-0.533-1.255-2.359-1.519-3.42-0.897
				c-0.559,0.327-0.977,0.869-1.149,1.494C37.733,40.714,37.905,41.278,38.181,41.928L38.181,41.928z"/>
		</g>
	</g>
	<g>
		<g>
			<path fill="#EEDDBF" d="M45.332,63.426c0.991-2.277,4.98-2.104,6.906-1.225c3.075,1.404,3.584,5.786,4.523,8.628
				c1.225-0.941,2.449-1.883,3.673-2.823c-0.381-0.265-0.957-0.9-0.972-0.465c0.02-0.593-0.148-1.463-0.465-1.972
				c-0.938-1.508-2.019-2.646-3.616-3.45c-3.177-1.601-7.139-1.344-10.304,0.054c-2.944,1.299-0.397,5.605,2.523,4.316
				c1.55-0.684,6.929-0.984,6.837,1.799c-0.079,2.366,1.907,2.95,3.473,4.034c1.796,1.245,4.339-0.809,3.673-2.823
				c-1.597-4.823-2.79-10.402-8.246-12.246c-3.975-1.342-10.433-0.694-12.323,3.649C39.742,63.827,44.048,66.376,45.332,63.426
				L45.332,63.426z"/>
		</g>
	</g>
	<g>
		<g>
			<path fill="#EEDDBF" d="M36.34,83.661c-0.067,3.978,2.619,6.117,5.399,8.435c1.045,0.872,2.507,1.028,3.535,0
				c0.898-0.897,1.048-2.662,0-3.535c-1.592-1.328-3.973-2.588-3.934-4.899C41.394,80.436,36.394,80.44,36.34,83.661L36.34,83.661z"
				/>
		</g>
	</g>
	<g>
		<g>
			<path fill="#EEDDBF" d="M43.102,87.486c0.814-0.511,1.342-0.604,2.24-0.247c-0.368-1.394-0.735-2.786-1.103-4.179
				c-1.32,1.213-2.444,2.051-3.143,3.769c-0.967,2.375,2.556,4.165,4.178,2.433c0.706-0.754,1.486-1.425,2.338-2.007
				c0.458-0.313,0.963-0.579,1.189-0.648c-0.88,0.269-2.125-0.882-2.008-1.708c-0.062,0.432-0.225,0.855-0.364,1.265
				c-0.941,2.766,3.118,4.268,4.569,1.927c0.539-0.868,0.932-1.89,1.609-2.661c2.118-2.412-1.404-5.963-3.535-3.535
				c-0.988,1.125-1.609,2.411-2.391,3.673c1.523,0.642,3.046,1.284,4.57,1.927c0.938-2.759,0.169-6.525-3.568-5.752
				c-2.247,0.466-4.418,2.356-5.944,3.985c1.393,0.811,2.786,1.621,4.178,2.433c0.212-0.521,1.423-1.164,1.857-1.563
				c1.516-1.393,0.529-3.529-1.103-4.179c-2.046-0.813-4.264-0.396-6.093,0.753C37.855,84.879,40.362,89.206,43.102,87.486
				L43.102,87.486z"/>
		</g>
	</g>
	<g>
		<g>
			<path fill="#EEDDBF" d="M52.468,78.826c0.179,0.942,0.321,1.892,0.5,2.834c0.247,1.307,2.041,1.074,2.41,0
				c0.377-0.63,0.078-0.764-0.896-0.403c0.158,0.149,0.29,0.341,0.426,0.511c0.275,0.341,0.586,0.603,0.936,0.865
				c1.083,0.814,2.703,0.708,3.866,1.44c1.368,0.862,2.622-1.302,1.262-2.158c-0.986-0.621-2.052-0.891-3.167-1.186
				c-0.78-0.206-1.046-0.668-1.555-1.24c-1.426-1.6-2.809,0.132-3.281,1.507c0.804,0,1.606,0,2.41,0
				c-0.179-0.943-0.32-1.892-0.5-2.834C54.577,76.579,52.168,77.251,52.468,78.826L52.468,78.826z"/>
		</g>
	</g>
	<g>
		<g>
			<path fill="#EEDDBF" d="M58.635,68.993c0.176,0.976,0.518,1.897,0.833,2.833c0.511,1.52,2.926,0.868,2.41-0.664
				c-0.314-0.937-0.656-1.858-0.833-2.833c-0.121-0.671-0.926-1.042-1.537-0.873C58.807,67.648,58.514,68.323,58.635,68.993
				L58.635,68.993z"/>
		</g>
	</g>
	<g>
		<g>
			<path fill="#EEDDBF" d="M72.84,97.411c2.989-0.087,4.659-2.131,5.912-4.619c0.724-1.436-1.433-2.702-2.158-1.262
				c-0.817,1.623-1.724,3.322-3.754,3.381C71.231,94.958,71.227,97.458,72.84,97.411L72.84,97.411z"/>
		</g>
	</g>
	<g>
		<g>
			<path fill="#EEDDBF" d="M76.594,93.459c0.916,1.493,2.369,2.046,3.962,1.227c1.249-0.643,2.19-2.04,2.863-3.227
				c0.797-1.404-1.363-2.663-2.158-1.262c-0.394,0.694-0.843,1.331-1.406,1.897c-0.473,0.475-0.729,0.712-1.103,0.103
				C77.911,90.826,75.748,92.081,76.594,93.459L76.594,93.459z"/>
		</g>
	</g>
	<g>
		<g>
			<path fill="#EEDDBF" d="M79.507,96.078c1.045-0.019,2.045-0.366,2.717-1.2c0.427-0.53,0.521-1.247,0-1.768
				c-0.442-0.443-1.34-0.531-1.768,0c-0.101,0.124-0.202,0.234-0.318,0.343c0.104-0.097-0.223,0.097-0.047,0.026
				c-0.321,0.129-0.307,0.094-0.584,0.099C77.896,93.606,77.894,96.106,79.507,96.078L79.507,96.078z"/>
		</g>
	</g>
	<g>
		<g>
			<path fill="#EEDDBF" d="M82.84,91.744c3.852,0.269,5.692-4.186,4.872-7.415c-0.396-1.563-2.808-0.899-2.41,0.664
				c0.438,1.726-0.313,4.4-2.462,4.251C81.23,89.132,81.241,91.633,82.84,91.744L82.84,91.744z"/>
		</g>
	</g>
	<g>
		<g>
			<path fill="#EEDDBF" d="M85.594,76.459c0.969,1.652,1.187,3.896,0.541,5.703c-0.544,1.521,1.872,2.171,2.41,0.664
				c0.86-2.405,0.489-5.442-0.793-7.629C86.938,73.808,84.776,75.065,85.594,76.459L85.594,76.459z"/>
		</g>
	</g>
	<polygon class="star_1" fill="none" stroke="#020202" stroke-width="0.5" stroke-miterlimit="10" points="29.482,26.266 
		30.631,30.202 31.326,26.266 33.176,25.048 31.326,24.382 30.631,18.96 29.482,24.382 27.508,25.048 	"/>
	<polygon class="star_2" fill="none" stroke="#020202" stroke-width="0.5" stroke-miterlimit="10" points="26.237,31.787 
		27.024,33.566 27.501,31.787 28.769,31.237 27.501,30.936 27.024,28.485 26.237,30.936 24.883,31.237 	"/>
</g>
<g id="Layer_4">
	
		<path fill="#D0E7F7" stroke="#D0E5F7" stroke-width="0.75" stroke-linecap="round" stroke-linejoin="round" stroke-miterlimit="10" d="
		M49.536,52.939c-0.091-0.352-0.257-0.681-0.513-0.962l-0.189,0.189c-0.85-1.227-1.792-0.765-2.41,0.198l-0.626-0.388
		c-0.379-1.708-0.949-3.226-2.277-4.365c-0.895,0.639-1.962,2.312-2.042,3.684l-0.615-0.079c-0.379-0.189-0.569-0.189-0.949-0.379
		c-0.569,1.898-2.846,6.641,0.569,6.641l0.379-0.379c1.518,0.569,3.226-1.519,4.175-2.277l0.718-0.445
		c-0.03,0.465,0.037,0.894,0.231,1.204c0.988,1.68,2.285,1.199,3.033,0.058l0.193,0.133c0.379,0.948,2.657,3.795,3.795,3.795
		c1.797,0,2.789-2.014,2.387-3.62l0.649-0.365c0.189-0.189,0.569-0.189,0.759-0.379c0.569,1.328,0.379,3.036,0.379,4.554
		c3.796-0.569,9.299-1.328,12.145-3.605l0.38,0.19c0.569-1.897,0-3.796-0.38-5.503c-4.364,0.57-8.729,2.087-13.093,2.277
		l-0.146,0.031c0.214-1.021-0.105-2.407-0.424-3.257c-1.897,0.19-4.364,1.328-5.692,2.656"/>
	
		<path fill="#EAEAEA" stroke="#EAEAEA" stroke-width="0.75" stroke-linecap="round" stroke-linejoin="round" stroke-miterlimit="10" d="
		M33.55,76.893c0.144-0.381,0.245-0.84,0.292-1.386c0.143-1.566-0.676-4.732-2.215-5.257l-0.062-1.195
		c-0.569,0.569-1.518-3.415-1.897-4.554c-0.569-1.708-1.139-3.226-1.897-4.744v-0.189c4.364,2.087,12.903,1.139,17.647,0.948
		l0.379,0.19c0.949,2.276,2.846,5.503,3.226,7.4v-1.139c0.19,1.139,0.38,2.087,0.569,3.226l0,0
		c-3.985-3.226-4.934,3.795-3.795,6.262c1.248,2.809,4.292,3.563,6.812,2.268l0.209,0.769c0.569,1.139,0.76,2.467,0.38,3.605
		l-1.328,0.38c-5.503,0-11.765,1.328-17.268,0.568c0.379-1.897-0.19-3.795-0.379-5.692L33.55,76.893z"/>
</g>
<g id="Layer_2">
	<g>
		<g>
			<path fill="#FFFFFF" d="M6.897,23.168c3.224,0,3.224-5,0-5S3.673,23.168,6.897,23.168L6.897,23.168z"/>
		</g>
	</g>
	<path fill="none" stroke="#000000" stroke-width="2" stroke-linecap="round" stroke-linejoin="round" stroke-miterlimit="10" d="
		M49.212,11.75c-1.708-2.467-5.503-10.247-9.108-8.539c-3.795,1.518-2.277,13.283-1.518,15.75"/>
	<path fill="none" stroke="#000000" stroke-width="2" stroke-linecap="round" stroke-linejoin="round" stroke-miterlimit="10" d="
		M46.746,14.406c5.693-2.467,11.575-3.416,17.268-1.897"/>
	<path fill="none" stroke="#000000" stroke-width="2" stroke-linecap="round" stroke-linejoin="round" stroke-miterlimit="10" d="
		M64.582,13.647c0.76-2.657,2.277-9.488,4.934-10.626c3.416-1.328,4.744,3.416,5.313,5.882c1.708,7.211,2.467,14.801,2.656,22.012
		c0.19,8.918,1.708,15.56-6.831,20.494"/>
	<path fill="none" stroke="#000000" stroke-width="2" stroke-linecap="round" stroke-linejoin="round" stroke-miterlimit="10" d="
		M38.776,19.909c-1.518,6.831-3.605,13.093-3.985,19.924c-0.379,5.692,2.277,6.452,6.452,9.298"/>
	<path fill="none" stroke="#000000" stroke-linecap="round" stroke-linejoin="round" stroke-miterlimit="10" d="M48.833,52.167
		c-1.708-2.467-3.795,1.897-2.846,3.415c1.897,3.227,4.934-1.518,3.036-3.604"/>
	<path fill="none" stroke="#000000" stroke-linecap="round" stroke-linejoin="round" stroke-miterlimit="10" d="M49.972,52.546
		c1.328-1.328,3.795-2.466,5.692-2.656c0.569,1.519,1.139,4.744-1.328,4.555c-0.189,0,0,0,0,0c2.087,1.328,1.139,5.123-1.328,5.123
		c-1.139,0-3.416-2.847-3.795-3.795"/>
	<path fill="none" stroke="#000000" stroke-linecap="round" stroke-linejoin="round" stroke-miterlimit="10" d="M49.592,54.634
		c0.759,0.189,1.519,0.189,2.277,0.189"/>
	<path fill="none" stroke="#000000" stroke-linecap="round" stroke-linejoin="round" stroke-miterlimit="10" d="M45.797,51.978
		c-0.379-1.708-0.949-3.226-2.277-4.365c-1.329,0.949-3.036,4.174-1.329,5.313c-1.518,0.759-1.518,2.656-1.328,4.175
		c1.518,0.569,3.226-1.519,4.175-2.277"/>
	<path fill="none" stroke="#000000" stroke-linecap="round" stroke-linejoin="round" stroke-miterlimit="10" d="M45.228,54.064
		c-0.189-0.569-0.379-0.759-0.949-0.759"/>
	<path fill="none" stroke="#000000" stroke-linecap="round" stroke-linejoin="round" stroke-miterlimit="10" d="M56.233,53.115
		c4.364-0.189,8.729-1.707,13.093-2.277c0.38,1.708,0.949,3.606,0.38,5.503"/>
	<path fill="none" stroke="#000000" stroke-linecap="round" stroke-linejoin="round" stroke-miterlimit="10" d="M56.044,55.582
		c0.189-0.189,0.569-0.189,0.759-0.379c0.569,1.328,0.379,3.036,0.379,4.554c3.796-0.569,9.299-1.328,12.145-3.605"/>
	<path fill="none" stroke="#000000" stroke-linecap="round" stroke-linejoin="round" stroke-miterlimit="10" d="M40.863,51.218
		c-0.379-0.189-0.569-0.189-0.949-0.379c-0.569,1.898-2.846,6.641,0.569,6.641"/>
	<path fill="none" stroke="#000000" stroke-width="2" stroke-linecap="round" stroke-linejoin="round" stroke-miterlimit="10" d="
		M70.085,55.962c6.831,3.984,1.139,21.252-1.707,25.427"/>
	<path fill="none" stroke="#000000" stroke-width="2" stroke-linecap="round" stroke-linejoin="round" stroke-miterlimit="10" d="
		M66.29,64.501c-0.569,3.226-1.708,6.262-3.415,8.918c-2.847-1.708-5.693-2.467-8.919-3.226c0.759-3.984-0.759-4.175-4.364-3.984"/>
	<path fill="none" stroke="#000000" stroke-width="2" stroke-linecap="round" stroke-linejoin="round" stroke-miterlimit="10" d="
		M49.022,66.968c0.19,1.139,0.38,2.087,0.569,3.226l0,0c-3.985-3.226-4.934,3.795-3.795,6.262c1.518,3.416,5.692,3.795,8.35,1.139
		c2.276,2.656,11.195,7.78,13.852,3.226"/>
	<path fill="none" stroke="#000000" stroke-width="2" stroke-linecap="round" stroke-linejoin="round" stroke-miterlimit="10" d="
		M29.857,70.763c2.657-2.277,4.175,2.656,3.985,4.744c-0.379,4.364-4.174,3.226-5.882,0c-0.949-2.088-1.897-7.4-0.189-9.298
		c2.277-2.657,2.087,2.656,2.467,3.795"/>
	<path fill="none" stroke="#000000" stroke-width="2" stroke-linecap="round" stroke-linejoin="round" stroke-miterlimit="10" d="
		M40.104,58.239c-0.19,0.569-0.569,0.948-0.759,1.518"/>
	<path fill="none" stroke="#000000" stroke-width="2" stroke-linecap="round" stroke-linejoin="round" stroke-miterlimit="10" d="
		M33.463,82.907c-6.262-7.211-11.385,4.174-12.903,9.298"/>
	<path fill="none" stroke="#000000" stroke-width="2" stroke-linecap="round" stroke-linejoin="round" stroke-miterlimit="10" d="
		M19.99,91.636c-0.189-2.088-1.897-5.313-4.174-5.692c-0.759,2.656-0.569,7.21,0.569,9.867"/>
	<path fill="none" stroke="#000000" stroke-width="2" stroke-linecap="round" stroke-linejoin="round" stroke-miterlimit="10" d="
		M17.523,95.62c8.918,1.328,18.406-0.189,27.515-0.189"/>
	<path fill="none" stroke="#000000" stroke-width="2" stroke-linecap="round" stroke-linejoin="round" stroke-miterlimit="10" d="
		M62.306,86.892c-1.519-1.518-3.416-3.984-5.883-4.364c-4.175-0.569-5.502,6.072-6.262,8.539"/>
	<path fill="none" stroke="#000000" stroke-width="2" stroke-linecap="round" stroke-linejoin="round" stroke-miterlimit="10" d="
		M51.11,92.964c-1.329-2.087-3.416-7.021-5.503-3.985c-0.949,1.519-0.759,6.452,0.19,7.97"/>
	<path fill="none" stroke="#000000" stroke-width="2" stroke-linecap="round" stroke-linejoin="round" stroke-miterlimit="10" d="
		M45.987,97.139c3.605,0,7.4,0,11.005,0c3.416,0,11.195,1.139,13.662-0.569"/>
	<path fill="none" stroke="#000000" stroke-width="2" stroke-linecap="round" stroke-linejoin="round" stroke-miterlimit="10" d="
		M73.312,70.952c1.138,5.883,1.328,13.853-0.38,19.545"/>
	<path fill="none" stroke="#000000" stroke-width="2" stroke-linecap="round" stroke-linejoin="round" stroke-miterlimit="10" d="
		M73.501,88.789c3.415-0.379,7.211-3.605,8.349-6.831c0.76-1.708,0-5.503,1.139-6.831c3.985-4.554,10.058,8.159,4.364,9.678"/>
	<path fill="none" stroke="#000000" stroke-width="2" stroke-linecap="round" stroke-linejoin="round" stroke-miterlimit="10" d="
		M85.455,82.907c3.985,1.518,3.036,8.159-0.759,9.298"/>
	<path fill="none" stroke="#000000" stroke-width="2" stroke-linecap="round" stroke-linejoin="round" stroke-miterlimit="10" d="
		M82.609,88.6c2.087,2.846-0.38,10.057-3.985,7.021"/>
	<path fill="none" stroke="#000000" stroke-width="2" stroke-linecap="round" stroke-linejoin="round" stroke-miterlimit="10" d="
		M77.865,91.445c1.328,4.365-4.554,8.729-5.883,4.555"/>
	<path fill="none" stroke="#000000" stroke-linecap="round" stroke-linejoin="round" stroke-miterlimit="10" d="M27.771,59.757
		c0.759,1.519,1.328,3.036,1.897,4.744c0.379,1.139,1.328,5.123,1.897,4.554"/>
	<path fill="none" stroke="#000000" stroke-linecap="round" stroke-linejoin="round" stroke-miterlimit="10" d="M27.771,59.567
		c4.364,2.087,12.903,1.139,17.647,0.948"/>
	<path fill="none" stroke="#000000" stroke-linecap="round" stroke-linejoin="round" stroke-miterlimit="10" d="M45.797,60.706
		c0.949,2.276,2.846,5.503,3.226,7.4"/>
	<path fill="none" stroke="#000000" stroke-linecap="round" stroke-linejoin="round" stroke-miterlimit="10" d="M34.222,78.353
		c0.189,1.897,0.759,3.795,0.379,5.692c5.503,0.76,11.765-0.568,17.268-0.568"/>
	<path fill="none" stroke="#000000" stroke-linecap="round" stroke-linejoin="round" stroke-miterlimit="10" d="M52.817,79.491
		c0.569,1.139,0.76,2.467,0.38,3.605"/>
	<g>
		<g>
			<path d="M50.541,38.996c0.598,0,1.171,0.008,1.755,0.146c1.568,0.368,2.233-2.042,0.664-2.411
				c-0.799-0.188-1.602-0.234-2.419-0.234C48.928,36.495,48.928,38.995,50.541,38.996L50.541,38.996z"/>
		</g>
	</g>
	<g>
		<g>
			<path d="M50.675,38.125c-0.012,0.89-0.177,1.767-0.189,2.657c-0.011,0.807,1.239,0.805,1.25,0
				c0.013-0.89,0.177-1.767,0.189-2.657C51.936,37.318,50.686,37.32,50.675,38.125L50.675,38.125z"/>
		</g>
	</g>
	<g>
		<g>
			<path d="M49.592,41.596c1.058-0.141,1.998,0.146,2.91,0.674c0.699,0.405,1.328-0.676,0.631-1.079
				c-1.081-0.626-2.283-1.013-3.541-0.845C48.805,40.451,48.795,41.703,49.592,41.596L49.592,41.596z"/>
		</g>
	</g>
	<path fill="#D3E8F3" stroke="#000000" stroke-linecap="round" stroke-linejoin="round" stroke-miterlimit="10" d="M56.803,30.915
		c4.175-1.708,9.487-2.277,13.852-3.036c-0.379,4.364-5.692,6.831-9.487,6.641c-1.519-0.189-5.883-1.328-4.364-3.226V30.915z"/>
	<path fill="none" stroke="#000000" stroke-linecap="round" stroke-linejoin="round" stroke-miterlimit="10" d="M56.044,31.484
		c-0.949-3.795-7.021-2.847-8.539-0.569"/>
	<path fill="#D3E8F3" stroke="#000000" stroke-linecap="round" stroke-linejoin="round" stroke-miterlimit="10" d="M47.315,30.725
		c-3.795-1.518-8.349-3.036-12.713-4.174c0.569,3.036,1.708,6.262,5.123,7.4c2.847,1.138,6.262,0.189,7.59-2.657V30.725z"/>
</g>
</svg>