<?xml version="1.0" encoding="utf-8"?>
<!-- Generator: Adobe Illustrator 16.0.0, SVG Export Plug-In . SVG Version: 6.00 Build 0)  -->
<!DOCTYPE svg PUBLIC "-//W3C//DTD SVG 1.1//EN" "http://www.w3.org/Graphics/SVG/1.1/DTD/svg11.dtd">
<svg version="1.1" id="Layer_1" xmlns="http://www.w3.org/2000/svg" xmlns:xlink="http://www.w3.org/1999/xlink" x="0px" y="0px"
	 width="50px" height="50px" viewBox="0 0 50 50" enable-background="new 0 0 50 50" xml:space="preserve">
<g>
	<path fill="#525252" d="M43.734,19.077c-0.003-0.024-0.01-0.045-0.012-0.07c-0.009-0.046-0.019-0.092-0.031-0.135
		c-0.006-0.027-0.017-0.052-0.024-0.078c-0.013-0.04-0.026-0.08-0.041-0.118c-0.012-0.027-0.022-0.054-0.035-0.08
		c-0.017-0.037-0.036-0.072-0.054-0.106c-0.015-0.025-0.031-0.05-0.047-0.075c-0.022-0.034-0.045-0.067-0.067-0.099
		c-0.019-0.022-0.036-0.047-0.057-0.07c-0.024-0.029-0.053-0.059-0.079-0.086c-0.022-0.022-0.043-0.043-0.065-0.063
		c-0.028-0.026-0.059-0.053-0.091-0.078c-0.025-0.018-0.05-0.036-0.074-0.055c-0.008-0.006-0.018-0.014-0.025-0.019L25.893,6.521
		c-0.541-0.361-1.246-0.361-1.788,0L6.967,17.947C6.958,17.952,6.95,17.96,6.94,17.966c-0.025,0.019-0.048,0.037-0.072,0.055
		c-0.032,0.025-0.063,0.052-0.092,0.078c-0.023,0.02-0.044,0.042-0.065,0.063c-0.028,0.027-0.054,0.057-0.08,0.086
		c-0.019,0.023-0.039,0.047-0.056,0.07c-0.024,0.032-0.046,0.065-0.068,0.099c-0.017,0.025-0.031,0.049-0.046,0.075
		c-0.02,0.034-0.037,0.069-0.055,0.106c-0.013,0.026-0.025,0.053-0.037,0.08c-0.015,0.038-0.028,0.078-0.042,0.118
		c-0.008,0.026-0.017,0.051-0.025,0.078c-0.012,0.043-0.021,0.089-0.029,0.135c-0.003,0.024-0.009,0.046-0.012,0.07
		c-0.009,0.069-0.014,0.138-0.014,0.21v11.425c0,0.071,0.005,0.141,0.014,0.212c0.003,0.021,0.009,0.047,0.012,0.068
		c0.008,0.045,0.017,0.091,0.029,0.135c0.008,0.026,0.017,0.053,0.025,0.078c0.013,0.041,0.027,0.079,0.042,0.116
		c0.011,0.029,0.024,0.054,0.037,0.079c0.018,0.035,0.035,0.071,0.055,0.106c0.015,0.026,0.029,0.05,0.046,0.075
		c0.021,0.033,0.043,0.067,0.068,0.098c0.017,0.026,0.037,0.048,0.056,0.069c0.025,0.031,0.052,0.062,0.08,0.088
		c0.021,0.021,0.042,0.043,0.065,0.063c0.029,0.029,0.06,0.053,0.092,0.079c0.023,0.017,0.046,0.035,0.072,0.052
		c0.009,0.007,0.017,0.015,0.026,0.021l17.138,11.424c0.272,0.181,0.584,0.273,0.896,0.273c0.31,0,0.622-0.093,0.893-0.273
		l17.139-11.424c0.008-0.007,0.018-0.015,0.025-0.021c0.024-0.017,0.049-0.035,0.074-0.052c0.032-0.026,0.063-0.05,0.091-0.079
		c0.022-0.021,0.043-0.043,0.065-0.063c0.026-0.026,0.055-0.057,0.079-0.088c0.021-0.021,0.038-0.043,0.057-0.069
		c0.022-0.03,0.045-0.064,0.067-0.098c0.016-0.025,0.032-0.049,0.047-0.075c0.018-0.035,0.037-0.071,0.054-0.106
		c0.013-0.025,0.023-0.05,0.035-0.079c0.015-0.037,0.028-0.075,0.041-0.116c0.008-0.025,0.019-0.052,0.024-0.078
		c0.013-0.044,0.022-0.09,0.031-0.135c0.002-0.021,0.009-0.048,0.012-0.068c0.009-0.071,0.015-0.141,0.015-0.212V19.287
		C43.749,19.215,43.743,19.146,43.734,19.077z M26.61,10.872l12.626,8.416l-5.641,3.773l-6.985-4.674V10.872z M23.388,10.872v7.516
		l-6.986,4.674l-5.641-3.773L23.388,10.872z M9.472,22.302l4.031,2.697l-4.031,2.696V22.302z M23.388,39.127L10.762,30.71
		l5.641-3.771l6.986,4.671V39.127z M25,28.812l-5.7-3.813l5.7-3.812l5.698,3.812L25,28.812z M26.61,39.127v-7.518l6.985-4.671
		l5.641,3.771L26.61,39.127z M40.525,27.695l-4.031-2.696l4.031-2.697V27.695z"/>
</g>
</svg>