<?xml version="1.0" encoding="utf-8"?>
<!-- Generator: Adobe Illustrator 16.0.0, SVG Export Plug-In . SVG Version: 6.00 Build 0)  -->
<!DOCTYPE svg PUBLIC "-//W3C//DTD SVG 1.1//EN" "http://www.w3.org/Graphics/SVG/1.1/DTD/svg11.dtd">
<svg version="1.1" id="Layer_1" xmlns="http://www.w3.org/2000/svg" xmlns:xlink="http://www.w3.org/1999/xlink" x="0px" y="0px"
	 width="50px" height="50px" viewBox="0 0 50 50" enable-background="new 0 0 50 50" xml:space="preserve">
<path fill-rule="evenodd" clip-rule="evenodd" fill="#525252" d="M24.999,4.301c-11.719,0-21.222,9.502-21.222,21.224
	c0,9.377,6.081,17.333,14.515,20.139c1.061,0.193,1.448-0.462,1.448-1.024c0-0.503-0.019-1.84-0.028-3.609
	c-5.904,1.282-7.149-2.845-7.149-2.845c-0.965-2.452-2.356-3.105-2.356-3.105c-1.927-1.315,0.146-1.289,0.146-1.289
	c2.13,0.148,3.251,2.188,3.251,2.188c1.893,3.241,4.967,2.305,6.176,1.763c0.193-1.371,0.741-2.308,1.347-2.837
	c-4.712-0.537-9.667-2.355-9.667-10.489c0-2.317,0.827-4.212,2.185-5.695c-0.219-0.537-0.947-2.695,0.208-5.617
	c0,0,1.782-0.571,5.836,2.176c1.692-0.471,3.509-0.707,5.313-0.715c1.804,0.008,3.617,0.244,5.313,0.715
	c4.053-2.747,5.831-2.176,5.831-2.176c1.158,2.922,0.429,5.08,0.211,5.617c1.359,1.483,2.181,3.378,2.181,5.695
	c0,8.154-4.961,9.947-9.689,10.471c0.762,0.656,1.44,1.951,1.44,3.931c0,2.838-0.026,5.125-0.026,5.822
	c0,0.568,0.382,1.227,1.46,1.021c8.427-2.812,14.501-10.76,14.501-20.135C46.223,13.803,36.721,4.301,24.999,4.301z"/>
</svg>