<?xml version="1.0" encoding="utf-8"?>
<!-- Generator: Adobe Illustrator 16.0.0, SVG Export Plug-In . SVG Version: 6.00 Build 0)  -->
<!DOCTYPE svg PUBLIC "-//W3C//DTD SVG 1.1//EN" "http://www.w3.org/Graphics/SVG/1.1/DTD/svg11.dtd">
<svg version="1.1" xmlns="http://www.w3.org/2000/svg" xmlns:xlink="http://www.w3.org/1999/xlink" x="0px" y="0px"
	 wclassth="124.002px" height="117px" viewBox="0 0 124.002 117" enable-background="new 0 0 124.002 117" xml:space="preserve">
<g class="Layer_2">
	<path fill="#99DBF9" stroke="#9ADBF8" stroke-linejoin="round" stroke-miterlimit="10" d="M68.127,88.5
		c0.375,1.625,0.625,4.25-0.5,5.625l-0.125,0.125c3.5,2.375,10,0.875,13.875-0.375C85.502,92.5,92.127,89.75,94.127,86l0.125-0.25
		c-1.75-2.875-3.875-6.75-3-10.125l-0.125,0.625l0,0c0.125-1.875,2.375-4.625,3.375-6.25c1.5-2.625,3.125-4.875,3.75-7.875
		c0.875-3.375,0.375-6.5,0.25-9.875c-0.125-2.875-0.125-6.5-1.375-9.25l-47.242,3.25c-1.008,3.375-1.512,6.75-0.252,10
		s1.512,5.375,0.756,8.625c-0.378,2.625-1.134,5.375-0.504,7.875c1.008,3.75,3.653,7,6.173,9.75c2.016,2.125,6.173,7.875,9.701,6.5
		l-0.256,0.125c0.855-0.244,1.715-0.501,2.574-0.772"/>
	<g>
		<path fill="#2383A5" d="M90.086,70.5c-0.945,5.525-4.352,11.369-8.828,14.799c-2.209,1.715-4.352,3.176-6.749,4.573
			c-1.45,0.953-4.352,2.541-5.991,2.351c0.169-1.178,0.017-2.506-0.198-3.516h0.27c0.815,0,1.692-0.682,2.444-1.054
			c1.379-0.619,2.883-0.867,4.261-1.673c2.445-1.425,5.203-2.354,7.459-4.15c0.939-0.806,1.504-1.735,2.318-2.603
			c1.002-0.991,2.068-2.045,2.758-3.284c1.002-1.797,2.318-4.337,2.506-6.443"/>
		<g>
			<path fill="#2383A5" d="M89.483,70.334c-1.445,7.078-5.396,12.217-11.181,16.373c-2.461,1.77-5.161,3.491-7.992,4.6
				c-1.493,0.585-1.105-1.076-1.204-1.667c-0.123-0.729-1.772,0.112,0.895-0.717c9.151-2.846,19.104-9.132,20.937-19.257
				c0.143-0.788-1.062-1.125-1.205-0.332c-0.896,4.952-4.367,9.866-8.461,12.789c-1.526,1.089-3.376,1.811-5.048,2.641
				c-1.67,0.829-5.818,3.318-7.905,3.318c-0.438,0-0.669,0.396-0.603,0.791c0.253,1.111,0.312,2.228,0.175,3.35
				c-0.02,0.329,0.299,0.64,0.625,0.625c4.69-0.215,9.743-4.28,13.183-7.106c4.702-3.866,7.773-9.121,8.988-15.075
				C90.85,69.879,89.645,69.544,89.483,70.334L89.483,70.334z"/>
		</g>
	</g>
	<g>
		<path fill="#2383A5" d="M91.127,60.5c1-0.75,4.25-2.375,2.875-3.875s-2.75,2.875-3,3.5L91.127,60.5z"/>
		<g>
			<path fill="#2383A5" d="M91.442,61.04c1.053-0.768,2.345-1.369,3.104-2.472c0.66-0.961,0.444-2.645-0.925-2.854
				c-1.176-0.18-1.894,1.143-2.325,2.024c-0.416,0.849-1.085,1.989-0.771,2.929c0.254,0.761,1.461,0.435,1.205-0.332
				c-0.021-0.063-0.042-0.125-0.063-0.188c-0.052-0.203-0.066-0.17-0.044,0.098c0.037-0.095,0.07-0.191,0.105-0.287
				c0.127-0.352,0.26-0.702,0.402-1.048c0.259-0.631,0.604-1.535,1.194-1.932c0.108-0.072,0.27,0.036,0.37,0.317
				c0.129,0.359-0.342,0.778-0.558,0.992c-0.683,0.675-1.557,1.113-2.326,1.674C90.167,60.431,90.79,61.516,91.442,61.04z"/>
		</g>
	</g>
	<path fill="none" stroke="#9BDBF8" stroke-linejoin="round" stroke-miterlimit="10" d="M90.002,68.625V69.5
		c-2.875,11.75-14,16.625-24.5,19.625L65.758,89c-3.528,1.375-7.685-4.375-9.701-6.5c-2.52-2.75-5.165-6-6.173-9.75
		c-0.63-2.5,0.126-5.25,0.504-7.875c0.756-3.25,0.504-5.375-0.756-8.625s-0.756-6.625,0.252-10"/>
	<path fill="none" stroke="#092C35" stroke-linejoin="round" stroke-miterlimit="10" d="M89.002,57.25c0.25-2,2.5-5.75,5-5.5
		c2.875,0.25,3.25,5.125,3.375,7.375c0.25,3.125-0.75,4.875-2.375,7.5c-1.125,1.5-3.125,4.625-5,2"/>
	<g>
		<g>
			<path fill="#092C35" d="M91.192,65.665c0.955-0.652,2.42-1.683,2.136-3.049c-0.246-1.182-1.022-1.617-1.994-2.127
				c-0.52-0.273,3.12-8.026,2.793-1.988c-0.044,0.806,1.207,0.802,1.25,0c0.066-1.226,0.128-2.964-1.226-3.514
				c-1.013-0.412-2.142,0.818-2.641,1.517c-0.837,1.172-1.677,2.895-1.355,4.37c0.104,0.473,0.561,0.721,0.967,0.885
				c0.368,0.149,0.609,0.35,0.84,0.683c0.616,0.886-0.875,1.786-1.4,2.145C89.9,65.038,90.525,66.122,91.192,65.665L91.192,65.665z"
				/>
		</g>
	</g>
	<g>
		<g>
			<path fill="#092C35" d="M91.337,57.816c0.352,0.595,0.676,1.21,0.938,1.851c0.301,0.736,1.511,0.414,1.205-0.332
				c-0.304-0.742-0.655-1.459-1.063-2.149C92.007,56.492,90.926,57.12,91.337,57.816L91.337,57.816z"/>
		</g>
	</g>
	<g>
		<g>
			<path fill="#092C35" d="M56.274,55.292c0.469,2.627,1.075,5.211,1.181,7.89c0.071,1.793-0.355,3.137-1.666,4.34
				c-0.51,0.469-0.81,0.935-1.002,1.594c-0.937,3.218,4.945,2.438,6.279,1.8c0.727-0.349,0.092-1.426-0.631-1.08
				c-1.071,0.513-2.237,0.61-3.403,0.447c-2.229-0.313,0.199-2.399,0.48-2.678c0.696-0.691,1.024-1.891,1.108-2.831
				c0.298-3.326-0.562-6.565-1.143-9.814C57.338,54.167,56.133,54.503,56.274,55.292L56.274,55.292z"/>
		</g>
	</g>
	<g>
		<g>
			<path fill="#092C35" d="M57.562,79.666c3.71,1.785,7.774-0.36,11.006-2.25c0.695-0.407,0.066-1.487-0.631-1.08
				c-2.766,1.617-6.521,3.802-9.744,2.25C57.47,78.238,56.835,79.316,57.562,79.666L57.562,79.666z"/>
		</g>
	</g>
	<g>
		<g>
			<path fill="#092C35" d="M66.962,75.816c0.392,0.784,0.777,1.57,1.125,2.375c0.319,0.738,1.396,0.101,1.079-0.631
				c-0.348-0.805-0.733-1.591-1.125-2.375C67.681,74.464,66.603,75.097,66.962,75.816L66.962,75.816z"/>
		</g>
	</g>
</g>
<g class="Layer_4">
	
		<ellipse class="Layer_2 eye_2" fill="#082B34" stroke="#082B34" stroke-linejoin="round" stroke-miterlimit="10" cx="53.252" cy="60.343" rx="1" ry="2.313"/>
	
		<ellipse class="Layer_2 eye_1" fill="#082B34" stroke="#082B34" stroke-linejoin="round" stroke-miterlimit="10" cx="69.627" cy="60.343" rx="1" ry="2.313"/>
</g>
<g class="Layer_6">
	<path class="Layer_2" fill="#F05577" stroke="#9ADBF8" stroke-miterlimit="10" d="M49.869,46.223c-0.157-2.332,10.292-4.948,23.346-5.845
		c13.054-0.895,23.763,0.272,23.927,2.604c0.154,2.331-10.297,4.947-23.347,5.842C60.742,49.722,50.03,48.556,49.869,46.223"/>
	<path class="Layer_2" fill="#0B262D" d="M56.243,45.786c-0.118-1.723,7.514-3.651,17.049-4.306s17.358,0.215,17.478,1.939
		c0.114,1.723-7.517,3.65-17.05,4.305C64.186,48.378,56.36,47.51,56.243,45.786"/>
	<path class="shadow" fill="#F05478" d="M67.008,108.59c-0.018-1.214,6.087-2.288,13.636-2.398c7.55-0.108,13.682,0.787,13.701,2.002
		c0.014,1.214-6.089,2.288-13.638,2.396C73.16,110.702,67.025,109.805,67.008,108.59"/>
</g>
<g class="Layer_9">
	<ellipse class="cloud_group" fill="#DCEFF4" cx="71.948" cy="29.711" rx="5.972" ry="5.48"/>
	<ellipse class="cloud_group" fill="#DCEFF4" cx="77.468" cy="32.441" rx="4.569" ry="2.953"/>
	<ellipse class="cloud_group" fill="#DCEFF4" cx="66.647" cy="31.735" rx="3.164" ry="2.905"/>
	<ellipse class="cloud_group" fill="#DCEFF4" cx="63.482" cy="32.825" rx="3.623" ry="1.869"/>
	<ellipse class="cloud_group" fill="#DCEFF4" cx="82.037" cy="32.963" rx="2.008" ry="1.637"/>
	<path fill="none" stroke="#9ADBF8" stroke-linecap="round" stroke-linejoin="round" stroke-miterlimit="10" d="M39.32,52.923
		c-3.119,1.317,0.682,3.996,0.682,3.996c-3.375,0.063-5.271-2.002-5.271-2.002l0,0.001c-0.425,0.135-0.86,0.263-1.305,0.382
		c-2.818,0.756-6.024,1.183-9.425,1.183c-11.253,0-20.375-4.68-20.375-10.452c0-5.772,9.122-10.452,20.375-10.452
		s20.375,4.679,20.375,10.452c0,2.612-1.868,5-4.957,6.833"/>
</g>
<g class="Layer_7">
	
		<path class="cloud_group" fill="#EFE0A0" stroke="#EEE09F" stroke-wclassth="0.25" stroke-linecap="round" stroke-linejoin="round" stroke-miterlimit="10" d="
		M72.87,29.063c-0.237-0.207-0.473-1.798-0.473-2.352v0.208c0.235,0.069,0.531,0.069,0.826,0c-0.235-0.83-1.413-1.521-1.65-0.623
		c-0.178,0.691,0.119,1.937,0.119,2.698"/>
	
		<path class="cloud_group" fill="#EBCF54" stroke="#231D0F" stroke-wclassth="0.5" stroke-linecap="round" stroke-linejoin="round" stroke-miterlimit="10" d="
		M72.817,28.849"/>
	
		<path class="cloud_group" fill="#EFDD53" stroke="#EEE09F" stroke-wclassth="0.5" stroke-linecap="round" stroke-linejoin="round" stroke-miterlimit="10" d="
		M76.067,30.037c-0.5-0.375-1.125-0.563-1.75-0.375l0.25,0.438c-0.438-0.938-1.5-1.375-2.437-0.813l-0.063-0.188
		c-0.438-0.25-0.938-0.125-1.375,0.125l-0.224,0.154c-0.072-0.034-0.144-0.065-0.213-0.092l-0.938-0.125h0.125
		c0.625-0.5,0.625-1.125,0.25-1.875c-0.375,0.5-0.875,1-1.375,1.5v-0.25c2.25-0.75,1-4.625-1.625-3.75
		c-1.625,0.625-2.25,3.125-0.375,3.75c-1.125,0.125-2.125,1.625-2.75,2.125v-0.125c-0.25-1.25-0.5-2.875-1.125-4.25
		c-0.125,0.125-0.25,0.375-0.375,0.625c-1.625-0.375-1.875,1.25-0.375,1.375l0.25,0.125c0.125,0.75,0.5,2.75,0.875,3.875
		c1-0.125,2-1,2.875-1.625c0.25,1.25,1.5,2.125,2.625,2c1.25-0.25,2.563,0.125,3.813,0.125c0.999,0,1.999-0.438,2.999-0.5
		l0.188-0.063c0.438,0.188,1.188,0.25,1.75,0.125c0.063-2.063-0.688-3.438-1.375-5.313l0.5,0.375c1.563,0.063-0.5-1.5-1.25-1.375
		c-1.188,0.188,0,2.625,0.313,3.5"/>
</g>
<g class="Layer_5">
	<g class="cloud_group">
		<g>
			<g>
				<path fill="#E9C21E" d="M66.385,28.295c-2.101-0.798-0.413-3.726,1.453-3.34c1.529,0.315,1.967,2.759,0.415,3.34
					c-0.299,0.112-0.169,0.596,0.133,0.482c2.126-0.797,1.516-3.907-0.551-4.333c-2.471-0.51-4.179,3.347-1.582,4.333
					C66.554,28.893,66.683,28.409,66.385,28.295L66.385,28.295z"/>
			</g>
		</g>
		<g>
			<g>
				<path fill="#E9C21E" d="M66.252,28.295c-1.267,0.2-1.954,1.427-2.86,2.189c-0.247,0.208,0.108,0.56,0.354,0.354
					c0.837-0.703,1.474-1.877,2.64-2.061C66.703,28.728,66.567,28.246,66.252,28.295L66.252,28.295z"/>
			</g>
		</g>
		<g>
			<g>
				<path fill="#E9C21E" d="M63.81,30.47c-0.289-1.468-0.552-2.929-1.15-4.31c-0.084-0.194-0.333-0.129-0.432,0
					c-0.153,0.198-0.262,0.402-0.375,0.625c0.094-0.039,0.188-0.077,0.282-0.115c-0.541-0.098-1.503-0.098-1.653,0.622
					c-0.156,0.747,0.487,1.146,1.145,1.236c0.315,0.043,0.451-0.439,0.133-0.482c-0.304-0.042-0.668-0.1-0.798-0.428
					c-0.225-0.565,0.812-0.506,1.041-0.465c0.106,0.019,0.229-0.01,0.282-0.115c0.113-0.222,0.223-0.427,0.375-0.625
					c-0.144,0-0.288,0-0.432,0c0.579,1.337,0.82,2.77,1.1,4.19C63.39,30.919,63.872,30.785,63.81,30.47L63.81,30.47z"/>
			</g>
		</g>
		<g>
			<g>
				<path fill="#E9C21E" d="M61.702,28.478c0.221,1.302,0.471,2.616,0.875,3.875c0.044,0.139,0.169,0.2,0.308,0.175
					c1.137-0.206,2.026-0.991,2.935-1.65c0.258-0.188,0.009-0.622-0.252-0.432c-0.871,0.632-1.726,1.403-2.815,1.6
					c0.103,0.058,0.205,0.117,0.308,0.175c-0.404-1.259-0.655-2.573-0.875-3.875C62.131,28.028,61.649,28.163,61.702,28.478
					L61.702,28.478z"/>
			</g>
		</g>
		<g>
			<g>
				<path fill="#E9C21E" d="M68.495,28.963c0.496-0.496,0.985-0.995,1.414-1.551c-0.144,0-0.288,0-0.432,0
					c0.279,0.593,0.315,1.114-0.211,1.572c-0.244,0.212,0.111,0.564,0.354,0.354c0.703-0.612,0.663-1.384,0.289-2.178
					c-0.089-0.19-0.33-0.132-0.432,0c-0.402,0.521-0.872,0.984-1.336,1.449C67.914,28.838,68.267,29.192,68.495,28.963
					L68.495,28.963z"/>
			</g>
		</g>
		<g>
			<g>
				<path fill="#E9C21E" d="M69.068,29.162c0.008,0.645,0.03,1.399,0.284,2.001c0.125,0.296,0.556,0.041,0.432-0.252
					c-0.217-0.515-0.209-1.2-0.216-1.749C69.564,28.839,69.064,28.839,69.068,29.162L69.068,29.162z"/>
			</g>
		</g>
		<g>
			<g>
				<path fill="#E9C21E" d="M67.943,28.787c0.01,1.054,0.19,2.246,0.623,3.21c0.156,0.35,0.417,0.813,0.855,0.833
					c0.532,0.024,0.876-0.518,1.113-0.917c0.165-0.278-0.268-0.529-0.432-0.252c-0.109,0.185-0.459,0.856-0.762,0.621
					c-0.297-0.231-0.416-0.705-0.518-1.046c-0.233-0.78-0.372-1.633-0.38-2.449C68.44,28.464,67.94,28.464,67.943,28.787
					L67.943,28.787z"/>
			</g>
		</g>
		<g>
			<g>
				<path fill="#E9C21E" d="M69.642,29.088c0.682,0.616,0.887,1.625,0.461,2.447c-0.148,0.286,0.283,0.539,0.432,0.252
					c0.526-1.014,0.313-2.282-0.539-3.053C69.757,28.519,69.402,28.872,69.642,29.088L69.642,29.088z"/>
			</g>
		</g>
		<g>
			<g>
				<path fill="#E9C21E" d="M65.452,30.728c0.302,1.293,1.516,2.288,2.866,2.184c0.319-0.024,0.322-0.525,0-0.5
					c-1.139,0.087-2.129-0.724-2.384-1.816C65.861,30.281,65.379,30.415,65.452,30.728L65.452,30.728z"/>
			</g>
		</g>
		<g>
			<g>
				<path fill="#E9C21E" d="M70.189,29.528c0.525,0.217,0.985,0.584,1.566,0.634c0.321,0.027,0.319-0.473,0-0.5
					c-0.504-0.042-0.972-0.426-1.434-0.616C70.024,28.922,69.896,29.407,70.189,29.528L70.189,29.528z"/>
			</g>
		</g>
		<g>
			<g>
				<path fill="#E9C21E" d="M70.819,29.44c0.367-0.194,0.725-0.313,1.123-0.125c0.29,0.137,0.543-0.294,0.252-0.432
					c-0.564-0.266-1.09-0.159-1.627,0.125C70.282,29.159,70.535,29.591,70.819,29.44L70.819,29.44z"/>
			</g>
		</g>
		<g>
			<g>
				<path fill="#E9C21E" d="M72.257,29.502c0.832-0.457,1.68-0.091,2.095,0.723c0.146,0.288,0.578,0.035,0.432-0.252
					c-0.541-1.063-1.72-1.484-2.778-0.902C71.722,29.226,71.974,29.658,72.257,29.502L72.257,29.502z"/>
			</g>
		</g>
		<g>
			<g>
				<path fill="#E9C21E" d="M74.384,29.903c0.584-0.144,1.076,0.013,1.558,0.35c0.265,0.186,0.515-0.249,0.252-0.432
					c-0.589-0.412-1.239-0.574-1.942-0.4C73.938,29.498,74.071,29.98,74.384,29.903L74.384,29.903z"/>
			</g>
		</g>
		<g>
			<g>
				<path fill="#E9C21E" d="M75.496,29.47c-0.324-0.881-0.826-1.8-0.819-2.76c0.005-0.693,0.763-0.351,1.105-0.165
					c0.205,0.111,0.39,0.252,0.56,0.411c0.245,0.229,0.129,0.207-0.149,0.206c-0.322-0.001-0.322,0.499,0,0.5
					c0.536,0.002,1.064-0.277,0.679-0.854c-0.338-0.505-1.14-0.991-1.75-1.023c-1.901-0.1-0.386,3.06-0.107,3.818
					C75.124,29.903,75.607,29.773,75.496,29.47L75.496,29.47z"/>
			</g>
		</g>
		<g>
			<g>
				<path fill="#E9C21E" d="M75.451,27.103c0.361,0.965,0.766,1.913,1.063,2.901c0.158,0.523,0.24,1.059,0.29,1.602
					c0.075,0.833-0.904,0.555-1.421,0.377c-0.306-0.104-0.436,0.378-0.133,0.482c0.621,0.212,1.238,0.228,1.883,0.125
					c0.108-0.018,0.183-0.139,0.184-0.241c0.013-1.933-0.719-3.6-1.384-5.379C75.821,26.671,75.338,26.8,75.451,27.103
					L75.451,27.103z"/>
			</g>
		</g>
		<g>
			<g>
				<path fill="#E9C21E" d="M71.818,28.787c-0.016-0.7-0.202-1.385-0.181-2.088c0.029-0.966,1.12-0.212,1.313,0.279
					c0.058-0.103,0.117-0.205,0.175-0.308c-0.261,0.042-0.483,0.05-0.742,0c-0.315-0.06-0.449,0.422-0.133,0.482
					c0.343,0.065,0.664,0.055,1.008,0c0.125-0.02,0.221-0.19,0.175-0.308c-0.269-0.684-1.148-1.416-1.906-1.012
					c-0.384,0.205-0.397,0.762-0.393,1.133c0.009,0.611,0.169,1.21,0.183,1.821C71.326,29.108,71.826,29.109,71.818,28.787
					L71.818,28.787z"/>
			</g>
		</g>
		<g>
			<g>
				<path fill="#E9C21E" d="M72.067,26.724c0.009,0.418,0.083,0.837,0.165,1.246c0.069,0.34,0.146,0.801,0.408,1.056
					c0.231,0.225,0.585-0.128,0.354-0.354c-0.187-0.182-0.227-0.593-0.279-0.835c-0.08-0.364-0.14-0.74-0.147-1.113
					C72.561,26.402,72.061,26.401,72.067,26.724L72.067,26.724z"/>
			</g>
		</g>
		<g>
			<g>
				<path fill="#E9C21E" d="M68.385,32.903c1.258-0.177,2.49,0.092,3.746,0.134c1.008,0.033,2.005-0.39,2.999-0.5
					c0.316-0.035,0.32-0.536,0-0.5c-1.173,0.13-2.277,0.524-3.471,0.484c-1.158-0.039-2.247-0.264-3.407-0.101
					C67.934,32.465,68.07,32.947,68.385,32.903L68.385,32.903z"/>
			</g>
		</g>
	</g>
</g>
<g class="Layer_8">
	<ellipse class="cloud_group" fill="#DCEFF4" cx="66.678" cy="32.62" rx="2.087" ry="1.669"/>
	<ellipse class="cloud_group" fill="#DCEFF4" cx="73.089" cy="32.962" rx="1.142" ry="0.99"/>
	<ellipse class="cloud_group" fill="#DCEFF4" cx="74.568" cy="32.674" rx="1.552" ry="1.425"/>
	<ellipse class="cloud_group" fill="#DCEFF4" cx="71.948" cy="32.963" rx="0.694" ry="0.602"/>
	<ellipse class="cloud_group" fill="#DCEFF4" cx="76.194" cy="32.963" rx="0.694" ry="0.602"/>
</g>
</svg>